<mxfile host="app.diagrams.net" agent="Mozilla/5.0 (Windows NT 10.0; Win64; x64) AppleWebKit/537.36 (KHTML, like Gecko) Chrome/127.0.0.0 Safari/537.36 OPR/113.0.0.0" version="24.7.17">
  <diagram name="Trang-1" id="4L5tw3__3EmhCwlKeqgT">
    <mxGraphModel dx="3436" dy="2555" grid="1" gridSize="10" guides="1" tooltips="1" connect="1" arrows="1" fold="1" page="1" pageScale="1" pageWidth="827" pageHeight="1169" math="0" shadow="0">
      <root>
        <mxCell id="0" />
        <mxCell id="1" parent="0" />
        <mxCell id="TT3b6GU9GvUDREySQNR4-1" value="User" style="html=1;whiteSpace=wrap;" parent="1" vertex="1">
          <mxGeometry x="484" y="57" width="110" height="50" as="geometry" />
        </mxCell>
        <mxCell id="TT3b6GU9GvUDREySQNR4-2" value="Account" style="html=1;whiteSpace=wrap;" parent="1" vertex="1">
          <mxGeometry x="987" y="57" width="110" height="50" as="geometry" />
        </mxCell>
        <mxCell id="TT3b6GU9GvUDREySQNR4-3" value="Admin" style="html=1;whiteSpace=wrap;" parent="1" vertex="1">
          <mxGeometry x="1423" y="52" width="110" height="50" as="geometry" />
        </mxCell>
        <mxCell id="TT3b6GU9GvUDREySQNR4-4" value="Payment" style="html=1;whiteSpace=wrap;" parent="1" vertex="1">
          <mxGeometry x="873" y="835" width="110" height="50" as="geometry" />
        </mxCell>
        <mxCell id="TT3b6GU9GvUDREySQNR4-5" value="Order" style="html=1;whiteSpace=wrap;" parent="1" vertex="1">
          <mxGeometry x="1003" y="350" width="110" height="50" as="geometry" />
        </mxCell>
        <mxCell id="TT3b6GU9GvUDREySQNR4-6" value="Delivery" style="html=1;whiteSpace=wrap;" parent="1" vertex="1">
          <mxGeometry x="1318" y="350" width="110" height="50" as="geometry" />
        </mxCell>
        <mxCell id="TT3b6GU9GvUDREySQNR4-7" value="Promotion" style="html=1;whiteSpace=wrap;" parent="1" vertex="1">
          <mxGeometry x="1003" y="168" width="110" height="50" as="geometry" />
        </mxCell>
        <mxCell id="TT3b6GU9GvUDREySQNR4-8" value="Product" style="html=1;whiteSpace=wrap;" parent="1" vertex="1">
          <mxGeometry x="1002" y="716" width="110" height="50" as="geometry" />
        </mxCell>
        <mxCell id="TT3b6GU9GvUDREySQNR4-9" value="Category" style="html=1;whiteSpace=wrap;" parent="1" vertex="1">
          <mxGeometry x="1302" y="717" width="110" height="50" as="geometry" />
        </mxCell>
        <mxCell id="TT3b6GU9GvUDREySQNR4-10" value="Comment" style="html=1;whiteSpace=wrap;" parent="1" vertex="1">
          <mxGeometry x="615" y="717" width="110" height="50" as="geometry" />
        </mxCell>
        <mxCell id="TT3b6GU9GvUDREySQNR4-24" value="Has" style="shape=rhombus;perimeter=rhombusPerimeter;whiteSpace=wrap;html=1;align=center;" parent="1" vertex="1">
          <mxGeometry x="768" y="52" width="120" height="60" as="geometry" />
        </mxCell>
        <mxCell id="TT3b6GU9GvUDREySQNR4-28" value="Has" style="shape=rhombus;perimeter=rhombusPerimeter;whiteSpace=wrap;html=1;align=center;" parent="1" vertex="1">
          <mxGeometry x="1205" y="52" width="120" height="60" as="geometry" />
        </mxCell>
        <mxCell id="TT3b6GU9GvUDREySQNR4-30" value="Observe" style="shape=rhombus;perimeter=rhombusPerimeter;whiteSpace=wrap;html=1;align=center;" parent="1" vertex="1">
          <mxGeometry x="1333" y="255" width="120" height="60" as="geometry" />
        </mxCell>
        <mxCell id="TT3b6GU9GvUDREySQNR4-32" value="&amp;nbsp;Rate" style="shape=rhombus;perimeter=rhombusPerimeter;whiteSpace=wrap;html=1;align=center;" parent="1" vertex="1">
          <mxGeometry x="611" y="455" width="120" height="60" as="geometry" />
        </mxCell>
        <mxCell id="TT3b6GU9GvUDREySQNR4-35" value="advance" style="shape=rhombus;perimeter=rhombusPerimeter;whiteSpace=wrap;html=1;align=center;" parent="1" vertex="1">
          <mxGeometry x="1163" y="345" width="120" height="60" as="geometry" />
        </mxCell>
        <mxCell id="TT3b6GU9GvUDREySQNR4-38" value="Observe" style="shape=rhombus;perimeter=rhombusPerimeter;whiteSpace=wrap;html=1;align=center;" parent="1" vertex="1">
          <mxGeometry x="1423" y="830" width="120" height="60" as="geometry" />
        </mxCell>
        <mxCell id="TT3b6GU9GvUDREySQNR4-41" value="Pay" style="shape=rhombus;perimeter=rhombusPerimeter;whiteSpace=wrap;html=1;align=center;" parent="1" vertex="1">
          <mxGeometry x="480" y="831" width="120" height="60" as="geometry" />
        </mxCell>
        <mxCell id="TT3b6GU9GvUDREySQNR4-45" value="" style="endArrow=none;html=1;rounded=0;" parent="1" source="TT3b6GU9GvUDREySQNR4-3" target="TT3b6GU9GvUDREySQNR4-30" edge="1">
          <mxGeometry relative="1" as="geometry">
            <mxPoint x="1093" y="382" as="sourcePoint" />
            <mxPoint x="1553" y="132" as="targetPoint" />
          </mxGeometry>
        </mxCell>
        <mxCell id="TT3b6GU9GvUDREySQNR4-46" value="1" style="resizable=0;html=1;whiteSpace=wrap;align=right;verticalAlign=bottom;" parent="TT3b6GU9GvUDREySQNR4-45" connectable="0" vertex="1">
          <mxGeometry x="1" relative="1" as="geometry">
            <mxPoint y="-7" as="offset" />
          </mxGeometry>
        </mxCell>
        <mxCell id="TT3b6GU9GvUDREySQNR4-47" value="" style="endArrow=none;html=1;rounded=0;" parent="1" source="TT3b6GU9GvUDREySQNR4-6" target="TT3b6GU9GvUDREySQNR4-30" edge="1">
          <mxGeometry relative="1" as="geometry">
            <mxPoint x="878" y="500" as="sourcePoint" />
            <mxPoint x="1348" y="370" as="targetPoint" />
          </mxGeometry>
        </mxCell>
        <mxCell id="TT3b6GU9GvUDREySQNR4-48" value="N" style="resizable=0;html=1;whiteSpace=wrap;align=right;verticalAlign=bottom;" parent="TT3b6GU9GvUDREySQNR4-47" connectable="0" vertex="1">
          <mxGeometry x="1" relative="1" as="geometry">
            <mxPoint x="-5" y="20" as="offset" />
          </mxGeometry>
        </mxCell>
        <mxCell id="TT3b6GU9GvUDREySQNR4-49" value="" style="endArrow=none;html=1;rounded=0;" parent="1" source="TT3b6GU9GvUDREySQNR4-1" target="TT3b6GU9GvUDREySQNR4-24" edge="1">
          <mxGeometry relative="1" as="geometry">
            <mxPoint x="766" y="142" as="sourcePoint" />
            <mxPoint x="1331" y="112" as="targetPoint" />
          </mxGeometry>
        </mxCell>
        <mxCell id="TT3b6GU9GvUDREySQNR4-50" value="1" style="resizable=0;html=1;whiteSpace=wrap;align=right;verticalAlign=bottom;" parent="TT3b6GU9GvUDREySQNR4-49" connectable="0" vertex="1">
          <mxGeometry x="1" relative="1" as="geometry" />
        </mxCell>
        <mxCell id="TT3b6GU9GvUDREySQNR4-51" value="" style="endArrow=none;html=1;rounded=0;" parent="1" source="TT3b6GU9GvUDREySQNR4-2" target="TT3b6GU9GvUDREySQNR4-24" edge="1">
          <mxGeometry relative="1" as="geometry">
            <mxPoint x="1498" y="182" as="sourcePoint" />
            <mxPoint x="1063" y="122" as="targetPoint" />
          </mxGeometry>
        </mxCell>
        <mxCell id="TT3b6GU9GvUDREySQNR4-52" value="1" style="resizable=0;html=1;whiteSpace=wrap;align=right;verticalAlign=bottom;" parent="TT3b6GU9GvUDREySQNR4-51" connectable="0" vertex="1">
          <mxGeometry x="1" relative="1" as="geometry" />
        </mxCell>
        <mxCell id="TT3b6GU9GvUDREySQNR4-53" value="" style="endArrow=none;html=1;rounded=0;" parent="1" source="TT3b6GU9GvUDREySQNR4-2" target="TT3b6GU9GvUDREySQNR4-28" edge="1">
          <mxGeometry relative="1" as="geometry">
            <mxPoint x="1508" y="192" as="sourcePoint" />
            <mxPoint x="1508" y="132" as="targetPoint" />
          </mxGeometry>
        </mxCell>
        <mxCell id="TT3b6GU9GvUDREySQNR4-54" value="1" style="resizable=0;html=1;whiteSpace=wrap;align=right;verticalAlign=bottom;" parent="TT3b6GU9GvUDREySQNR4-53" connectable="0" vertex="1">
          <mxGeometry x="1" relative="1" as="geometry" />
        </mxCell>
        <mxCell id="TT3b6GU9GvUDREySQNR4-55" value="" style="endArrow=none;html=1;rounded=0;" parent="1" source="TT3b6GU9GvUDREySQNR4-3" target="TT3b6GU9GvUDREySQNR4-28" edge="1">
          <mxGeometry relative="1" as="geometry">
            <mxPoint x="1518" y="202" as="sourcePoint" />
            <mxPoint x="1518" y="142" as="targetPoint" />
          </mxGeometry>
        </mxCell>
        <mxCell id="TT3b6GU9GvUDREySQNR4-56" value="1" style="resizable=0;html=1;whiteSpace=wrap;align=right;verticalAlign=bottom;" parent="TT3b6GU9GvUDREySQNR4-55" connectable="0" vertex="1">
          <mxGeometry x="1" relative="1" as="geometry">
            <mxPoint x="4" y="-3" as="offset" />
          </mxGeometry>
        </mxCell>
        <mxCell id="TT3b6GU9GvUDREySQNR4-57" value="" style="endArrow=none;html=1;rounded=0;" parent="1" source="TT3b6GU9GvUDREySQNR4-3" target="TT3b6GU9GvUDREySQNR4-38" edge="1">
          <mxGeometry relative="1" as="geometry">
            <mxPoint x="1528" y="212" as="sourcePoint" />
            <mxPoint x="1528" y="152" as="targetPoint" />
          </mxGeometry>
        </mxCell>
        <mxCell id="TT3b6GU9GvUDREySQNR4-58" value="1" style="resizable=0;html=1;whiteSpace=wrap;align=right;verticalAlign=bottom;" parent="TT3b6GU9GvUDREySQNR4-57" connectable="0" vertex="1">
          <mxGeometry x="1" relative="1" as="geometry" />
        </mxCell>
        <mxCell id="TT3b6GU9GvUDREySQNR4-59" value="" style="endArrow=none;html=1;rounded=0;" parent="1" source="TT3b6GU9GvUDREySQNR4-1" target="TT3b6GU9GvUDREySQNR4-41" edge="1">
          <mxGeometry relative="1" as="geometry">
            <mxPoint x="1381" y="222" as="sourcePoint" />
            <mxPoint x="1381" y="162" as="targetPoint" />
          </mxGeometry>
        </mxCell>
        <mxCell id="TT3b6GU9GvUDREySQNR4-60" value="1" style="resizable=0;html=1;whiteSpace=wrap;align=right;verticalAlign=bottom;" parent="TT3b6GU9GvUDREySQNR4-59" connectable="0" vertex="1">
          <mxGeometry x="1" relative="1" as="geometry">
            <mxPoint x="-10" y="-3" as="offset" />
          </mxGeometry>
        </mxCell>
        <mxCell id="TT3b6GU9GvUDREySQNR4-61" value="" style="endArrow=none;html=1;rounded=0;" parent="1" source="TT3b6GU9GvUDREySQNR4-4" target="TT3b6GU9GvUDREySQNR4-41" edge="1">
          <mxGeometry relative="1" as="geometry">
            <mxPoint x="873" y="859.1439790575917" as="sourcePoint" />
            <mxPoint x="605.6875" y="859.84375" as="targetPoint" />
          </mxGeometry>
        </mxCell>
        <mxCell id="TT3b6GU9GvUDREySQNR4-62" value="1" style="resizable=0;html=1;whiteSpace=wrap;align=right;verticalAlign=bottom;" parent="TT3b6GU9GvUDREySQNR4-61" connectable="0" vertex="1">
          <mxGeometry x="1" relative="1" as="geometry" />
        </mxCell>
        <mxCell id="TT3b6GU9GvUDREySQNR4-63" value="" style="endArrow=none;html=1;rounded=0;entryX=0;entryY=0;entryDx=0;entryDy=0;" parent="1" source="TT3b6GU9GvUDREySQNR4-1" target="TT3b6GU9GvUDREySQNR4-32" edge="1">
          <mxGeometry relative="1" as="geometry">
            <mxPoint x="1401" y="242" as="sourcePoint" />
            <mxPoint x="1401" y="182" as="targetPoint" />
          </mxGeometry>
        </mxCell>
        <mxCell id="TT3b6GU9GvUDREySQNR4-64" value="1" style="resizable=0;html=1;whiteSpace=wrap;align=right;verticalAlign=bottom;" parent="TT3b6GU9GvUDREySQNR4-63" connectable="0" vertex="1">
          <mxGeometry x="1" relative="1" as="geometry">
            <mxPoint x="10" y="-20" as="offset" />
          </mxGeometry>
        </mxCell>
        <mxCell id="TT3b6GU9GvUDREySQNR4-67" value="" style="endArrow=none;html=1;rounded=0;" parent="1" source="TT3b6GU9GvUDREySQNR4-5" target="TT3b6GU9GvUDREySQNR4-35" edge="1">
          <mxGeometry relative="1" as="geometry">
            <mxPoint x="1113" y="440.66666666666674" as="sourcePoint" />
            <mxPoint x="1166.4285714285716" y="442.2857142857142" as="targetPoint" />
          </mxGeometry>
        </mxCell>
        <mxCell id="TT3b6GU9GvUDREySQNR4-68" value="1" style="resizable=0;html=1;whiteSpace=wrap;align=right;verticalAlign=bottom;" parent="TT3b6GU9GvUDREySQNR4-67" connectable="0" vertex="1">
          <mxGeometry x="1" relative="1" as="geometry">
            <mxPoint x="3" y="-2" as="offset" />
          </mxGeometry>
        </mxCell>
        <mxCell id="TT3b6GU9GvUDREySQNR4-69" value="" style="endArrow=none;html=1;rounded=0;" parent="1" source="TT3b6GU9GvUDREySQNR4-6" target="TT3b6GU9GvUDREySQNR4-35" edge="1">
          <mxGeometry relative="1" as="geometry">
            <mxPoint x="1313" y="447.1034482758621" as="sourcePoint" />
            <mxPoint x="1279.1290322580644" y="445.9354838709678" as="targetPoint" />
          </mxGeometry>
        </mxCell>
        <mxCell id="TT3b6GU9GvUDREySQNR4-70" value="1" style="resizable=0;html=1;whiteSpace=wrap;align=right;verticalAlign=bottom;" parent="TT3b6GU9GvUDREySQNR4-69" connectable="0" vertex="1">
          <mxGeometry x="1" relative="1" as="geometry">
            <mxPoint y="-2" as="offset" />
          </mxGeometry>
        </mxCell>
        <mxCell id="TT3b6GU9GvUDREySQNR4-73" value="" style="endArrow=none;html=1;rounded=0;" parent="1" source="TT3b6GU9GvUDREySQNR4-10" target="TT3b6GU9GvUDREySQNR4-32" edge="1">
          <mxGeometry relative="1" as="geometry">
            <mxPoint x="1006" y="568" as="sourcePoint" />
            <mxPoint x="541" y="588" as="targetPoint" />
            <Array as="points" />
          </mxGeometry>
        </mxCell>
        <mxCell id="TT3b6GU9GvUDREySQNR4-74" value="N" style="resizable=0;html=1;whiteSpace=wrap;align=right;verticalAlign=bottom;" parent="TT3b6GU9GvUDREySQNR4-73" connectable="0" vertex="1">
          <mxGeometry x="1" relative="1" as="geometry">
            <mxPoint x="-5" y="20" as="offset" />
          </mxGeometry>
        </mxCell>
        <mxCell id="TT3b6GU9GvUDREySQNR4-75" value="Has" style="shape=rhombus;perimeter=rhombusPerimeter;whiteSpace=wrap;html=1;align=center;" parent="1" vertex="1">
          <mxGeometry x="826" y="710" width="120" height="60" as="geometry" />
        </mxCell>
        <mxCell id="TT3b6GU9GvUDREySQNR4-76" value="" style="endArrow=none;html=1;rounded=0;" parent="1" source="TT3b6GU9GvUDREySQNR4-8" target="TT3b6GU9GvUDREySQNR4-75" edge="1">
          <mxGeometry relative="1" as="geometry">
            <mxPoint x="993" y="954" as="sourcePoint" />
            <mxPoint x="963" y="994" as="targetPoint" />
          </mxGeometry>
        </mxCell>
        <mxCell id="TT3b6GU9GvUDREySQNR4-77" value="1" style="resizable=0;html=1;whiteSpace=wrap;align=right;verticalAlign=bottom;" parent="TT3b6GU9GvUDREySQNR4-76" connectable="0" vertex="1">
          <mxGeometry x="1" relative="1" as="geometry">
            <mxPoint x="9" y="-4" as="offset" />
          </mxGeometry>
        </mxCell>
        <mxCell id="TT3b6GU9GvUDREySQNR4-78" value="" style="endArrow=none;html=1;rounded=0;" parent="1" source="TT3b6GU9GvUDREySQNR4-10" target="TT3b6GU9GvUDREySQNR4-75" edge="1">
          <mxGeometry relative="1" as="geometry">
            <mxPoint x="551" y="854" as="sourcePoint" />
            <mxPoint x="551" y="704" as="targetPoint" />
            <Array as="points" />
          </mxGeometry>
        </mxCell>
        <mxCell id="TT3b6GU9GvUDREySQNR4-79" value="N" style="resizable=0;html=1;whiteSpace=wrap;align=right;verticalAlign=bottom;" parent="TT3b6GU9GvUDREySQNR4-78" connectable="0" vertex="1">
          <mxGeometry x="1" relative="1" as="geometry">
            <mxPoint x="4" y="-5" as="offset" />
          </mxGeometry>
        </mxCell>
        <mxCell id="TT3b6GU9GvUDREySQNR4-80" value="Change" style="shape=rhombus;perimeter=rhombusPerimeter;whiteSpace=wrap;html=1;align=center;" parent="1" vertex="1">
          <mxGeometry x="1203" y="163" width="120" height="60" as="geometry" />
        </mxCell>
        <mxCell id="TT3b6GU9GvUDREySQNR4-81" value="" style="endArrow=none;html=1;rounded=0;" parent="1" source="TT3b6GU9GvUDREySQNR4-3" target="TT3b6GU9GvUDREySQNR4-80" edge="1">
          <mxGeometry relative="1" as="geometry">
            <mxPoint x="1443.9177631578946" y="72" as="sourcePoint" />
            <mxPoint x="1495.78" y="52" as="targetPoint" />
          </mxGeometry>
        </mxCell>
        <mxCell id="TT3b6GU9GvUDREySQNR4-82" value="1" style="resizable=0;html=1;whiteSpace=wrap;align=right;verticalAlign=bottom;" parent="TT3b6GU9GvUDREySQNR4-81" connectable="0" vertex="1">
          <mxGeometry x="1" relative="1" as="geometry">
            <mxPoint x="4" y="-2" as="offset" />
          </mxGeometry>
        </mxCell>
        <mxCell id="TT3b6GU9GvUDREySQNR4-83" value="" style="endArrow=none;html=1;rounded=0;" parent="1" source="TT3b6GU9GvUDREySQNR4-7" target="TT3b6GU9GvUDREySQNR4-80" edge="1">
          <mxGeometry relative="1" as="geometry">
            <mxPoint x="1147.046875" y="273" as="sourcePoint" />
            <mxPoint x="1455.78" y="300" as="targetPoint" />
            <Array as="points" />
          </mxGeometry>
        </mxCell>
        <mxCell id="TT3b6GU9GvUDREySQNR4-84" value="N" style="resizable=0;html=1;whiteSpace=wrap;align=right;verticalAlign=bottom;" parent="TT3b6GU9GvUDREySQNR4-83" connectable="0" vertex="1">
          <mxGeometry x="1" relative="1" as="geometry" />
        </mxCell>
        <mxCell id="TT3b6GU9GvUDREySQNR4-85" value="" style="endArrow=none;html=1;rounded=0;" parent="1" source="TT3b6GU9GvUDREySQNR4-38" target="TT3b6GU9GvUDREySQNR4-4" edge="1">
          <mxGeometry relative="1" as="geometry">
            <mxPoint x="1093" y="720" as="sourcePoint" />
            <mxPoint x="1253" y="720" as="targetPoint" />
          </mxGeometry>
        </mxCell>
        <mxCell id="TT3b6GU9GvUDREySQNR4-86" value="N" style="resizable=0;html=1;whiteSpace=wrap;align=right;verticalAlign=bottom;" parent="TT3b6GU9GvUDREySQNR4-85" connectable="0" vertex="1">
          <mxGeometry x="1" relative="1" as="geometry">
            <mxPoint x="445" y="-8" as="offset" />
          </mxGeometry>
        </mxCell>
        <mxCell id="TT3b6GU9GvUDREySQNR4-87" value="Has" style="shape=rhombus;perimeter=rhombusPerimeter;whiteSpace=wrap;html=1;align=center;" parent="1" vertex="1">
          <mxGeometry x="1147" y="711" width="120" height="60" as="geometry" />
        </mxCell>
        <mxCell id="TT3b6GU9GvUDREySQNR4-88" value="" style="endArrow=none;html=1;rounded=0;" parent="1" source="TT3b6GU9GvUDREySQNR4-8" target="TT3b6GU9GvUDREySQNR4-87" edge="1">
          <mxGeometry relative="1" as="geometry">
            <mxPoint x="1210.5" y="762" as="sourcePoint" />
            <mxPoint x="1070.5" y="1064" as="targetPoint" />
          </mxGeometry>
        </mxCell>
        <mxCell id="TT3b6GU9GvUDREySQNR4-89" value="1" style="resizable=0;html=1;whiteSpace=wrap;align=right;verticalAlign=bottom;" parent="TT3b6GU9GvUDREySQNR4-88" connectable="0" vertex="1">
          <mxGeometry x="1" relative="1" as="geometry">
            <mxPoint x="9" y="-4" as="offset" />
          </mxGeometry>
        </mxCell>
        <mxCell id="TT3b6GU9GvUDREySQNR4-90" value="" style="endArrow=none;html=1;rounded=0;" parent="1" source="TT3b6GU9GvUDREySQNR4-9" target="TT3b6GU9GvUDREySQNR4-87" edge="1">
          <mxGeometry relative="1" as="geometry">
            <mxPoint x="1335.5" y="810.9814814814815" as="sourcePoint" />
            <mxPoint x="815.5" y="774" as="targetPoint" />
            <Array as="points" />
          </mxGeometry>
        </mxCell>
        <mxCell id="TT3b6GU9GvUDREySQNR4-91" value="N" style="resizable=0;html=1;whiteSpace=wrap;align=right;verticalAlign=bottom;" parent="TT3b6GU9GvUDREySQNR4-90" connectable="0" vertex="1">
          <mxGeometry x="1" relative="1" as="geometry">
            <mxPoint x="4" y="-5" as="offset" />
          </mxGeometry>
        </mxCell>
        <mxCell id="TT3b6GU9GvUDREySQNR4-92" value="Has" style="shape=rhombus;perimeter=rhombusPerimeter;whiteSpace=wrap;html=1;align=center;" parent="1" vertex="1">
          <mxGeometry x="998" y="434" width="120" height="60" as="geometry" />
        </mxCell>
        <mxCell id="TT3b6GU9GvUDREySQNR4-93" value="" style="endArrow=none;html=1;rounded=0;" parent="1" source="TT3b6GU9GvUDREySQNR4-5" target="TT3b6GU9GvUDREySQNR4-92" edge="1">
          <mxGeometry relative="1" as="geometry">
            <mxPoint x="1058" y="464" as="sourcePoint" />
            <mxPoint x="1091" y="1031" as="targetPoint" />
          </mxGeometry>
        </mxCell>
        <mxCell id="TT3b6GU9GvUDREySQNR4-94" value="1" style="resizable=0;html=1;whiteSpace=wrap;align=right;verticalAlign=bottom;" parent="TT3b6GU9GvUDREySQNR4-93" connectable="0" vertex="1">
          <mxGeometry x="1" relative="1" as="geometry">
            <mxPoint x="13" y="2" as="offset" />
          </mxGeometry>
        </mxCell>
        <mxCell id="TT3b6GU9GvUDREySQNR4-95" value="" style="endArrow=none;html=1;rounded=0;" parent="1" source="TT3b6GU9GvUDREySQNR4-97" target="TT3b6GU9GvUDREySQNR4-92" edge="1">
          <mxGeometry relative="1" as="geometry">
            <mxPoint x="1322.5" y="709" as="sourcePoint" />
            <mxPoint x="836" y="741" as="targetPoint" />
            <Array as="points" />
          </mxGeometry>
        </mxCell>
        <mxCell id="TT3b6GU9GvUDREySQNR4-96" value="N" style="resizable=0;html=1;whiteSpace=wrap;align=right;verticalAlign=bottom;" parent="TT3b6GU9GvUDREySQNR4-95" connectable="0" vertex="1">
          <mxGeometry x="1" relative="1" as="geometry">
            <mxPoint x="-2" y="17" as="offset" />
          </mxGeometry>
        </mxCell>
        <mxCell id="TT3b6GU9GvUDREySQNR4-97" value="Order Detail" style="html=1;whiteSpace=wrap;" parent="1" vertex="1">
          <mxGeometry x="1003" y="541" width="110" height="50" as="geometry" />
        </mxCell>
        <mxCell id="TT3b6GU9GvUDREySQNR4-98" value="Has" style="shape=rhombus;perimeter=rhombusPerimeter;whiteSpace=wrap;html=1;align=center;" parent="1" vertex="1">
          <mxGeometry x="997" y="624" width="120" height="60" as="geometry" />
        </mxCell>
        <mxCell id="TT3b6GU9GvUDREySQNR4-99" value="" style="endArrow=none;html=1;rounded=0;" parent="1" source="TT3b6GU9GvUDREySQNR4-8" target="TT3b6GU9GvUDREySQNR4-98" edge="1">
          <mxGeometry relative="1" as="geometry">
            <mxPoint x="606" y="296" as="sourcePoint" />
            <mxPoint x="1341" y="326" as="targetPoint" />
          </mxGeometry>
        </mxCell>
        <mxCell id="TT3b6GU9GvUDREySQNR4-100" value="1" style="resizable=0;html=1;whiteSpace=wrap;align=right;verticalAlign=bottom;" parent="TT3b6GU9GvUDREySQNR4-99" connectable="0" vertex="1">
          <mxGeometry x="1" relative="1" as="geometry">
            <mxPoint x="-5" y="16" as="offset" />
          </mxGeometry>
        </mxCell>
        <mxCell id="TT3b6GU9GvUDREySQNR4-101" value="" style="endArrow=none;html=1;rounded=0;" parent="1" source="TT3b6GU9GvUDREySQNR4-97" target="TT3b6GU9GvUDREySQNR4-98" edge="1">
          <mxGeometry relative="1" as="geometry">
            <mxPoint x="997" y="296" as="sourcePoint" />
            <mxPoint x="1073" y="336" as="targetPoint" />
          </mxGeometry>
        </mxCell>
        <mxCell id="TT3b6GU9GvUDREySQNR4-102" value="1" style="resizable=0;html=1;whiteSpace=wrap;align=right;verticalAlign=bottom;" parent="TT3b6GU9GvUDREySQNR4-101" connectable="0" vertex="1">
          <mxGeometry x="1" relative="1" as="geometry" />
        </mxCell>
        <mxCell id="xANfVYWBUugLLFJxZVE2-2" value="Apply" style="shape=rhombus;perimeter=rhombusPerimeter;whiteSpace=wrap;html=1;align=center;" parent="1" vertex="1">
          <mxGeometry x="997" y="253" width="120" height="60" as="geometry" />
        </mxCell>
        <mxCell id="xANfVYWBUugLLFJxZVE2-3" value="" style="endArrow=none;html=1;rounded=0;" parent="1" source="xANfVYWBUugLLFJxZVE2-2" target="TT3b6GU9GvUDREySQNR4-7" edge="1">
          <mxGeometry relative="1" as="geometry">
            <mxPoint x="916" y="524" as="sourcePoint" />
            <mxPoint x="1076" y="524" as="targetPoint" />
          </mxGeometry>
        </mxCell>
        <mxCell id="xANfVYWBUugLLFJxZVE2-4" value="" style="endArrow=none;html=1;rounded=0;" parent="1" source="xANfVYWBUugLLFJxZVE2-2" target="TT3b6GU9GvUDREySQNR4-5" edge="1">
          <mxGeometry relative="1" as="geometry">
            <mxPoint x="916" y="524" as="sourcePoint" />
            <mxPoint x="1076" y="524" as="targetPoint" />
          </mxGeometry>
        </mxCell>
        <mxCell id="xANfVYWBUugLLFJxZVE2-5" value="Observe" style="shape=rhombus;perimeter=rhombusPerimeter;whiteSpace=wrap;html=1;align=center;" parent="1" vertex="1">
          <mxGeometry x="987" y="-38" width="120" height="60" as="geometry" />
        </mxCell>
        <mxCell id="xANfVYWBUugLLFJxZVE2-6" value="" style="endArrow=none;html=1;rounded=0;" parent="1" source="TT3b6GU9GvUDREySQNR4-1" target="xANfVYWBUugLLFJxZVE2-5" edge="1">
          <mxGeometry relative="1" as="geometry">
            <mxPoint x="535.3888888888889" y="57" as="sourcePoint" />
            <mxPoint x="975" y="-8" as="targetPoint" />
            <Array as="points">
              <mxPoint x="539" y="-8" />
            </Array>
          </mxGeometry>
        </mxCell>
        <mxCell id="xANfVYWBUugLLFJxZVE2-7" value="N" style="resizable=0;html=1;whiteSpace=wrap;align=right;verticalAlign=bottom;" parent="xANfVYWBUugLLFJxZVE2-6" connectable="0" vertex="1">
          <mxGeometry x="1" relative="1" as="geometry" />
        </mxCell>
        <mxCell id="xANfVYWBUugLLFJxZVE2-8" value="" style="endArrow=none;html=1;rounded=0;" parent="1" source="TT3b6GU9GvUDREySQNR4-3" target="xANfVYWBUugLLFJxZVE2-5" edge="1">
          <mxGeometry relative="1" as="geometry">
            <mxPoint x="906" y="302" as="sourcePoint" />
            <mxPoint x="1066" y="302" as="targetPoint" />
            <Array as="points">
              <mxPoint x="1476" y="-8" />
            </Array>
          </mxGeometry>
        </mxCell>
        <mxCell id="xANfVYWBUugLLFJxZVE2-9" value="1" style="resizable=0;html=1;whiteSpace=wrap;align=right;verticalAlign=bottom;" parent="xANfVYWBUugLLFJxZVE2-8" connectable="0" vertex="1">
          <mxGeometry x="1" relative="1" as="geometry" />
        </mxCell>
        <mxCell id="lVBCcf4ss-iberl4f2fq-1" value="Observe" style="shape=rhombus;perimeter=rhombusPerimeter;whiteSpace=wrap;html=1;align=center;" parent="1" vertex="1">
          <mxGeometry x="686" y="345" width="120" height="60" as="geometry" />
        </mxCell>
        <mxCell id="lVBCcf4ss-iberl4f2fq-2" value="" style="endArrow=none;html=1;rounded=0;" parent="1" source="TT3b6GU9GvUDREySQNR4-1" target="lVBCcf4ss-iberl4f2fq-1" edge="1">
          <mxGeometry relative="1" as="geometry">
            <mxPoint x="976" y="402" as="sourcePoint" />
            <mxPoint x="1136" y="402" as="targetPoint" />
          </mxGeometry>
        </mxCell>
        <mxCell id="lVBCcf4ss-iberl4f2fq-3" value="1" style="resizable=0;html=1;whiteSpace=wrap;align=right;verticalAlign=bottom;" parent="lVBCcf4ss-iberl4f2fq-2" connectable="0" vertex="1">
          <mxGeometry x="1" relative="1" as="geometry">
            <mxPoint x="4" y="-7" as="offset" />
          </mxGeometry>
        </mxCell>
        <mxCell id="lVBCcf4ss-iberl4f2fq-4" value="" style="endArrow=none;html=1;rounded=0;" parent="1" source="TT3b6GU9GvUDREySQNR4-5" target="lVBCcf4ss-iberl4f2fq-1" edge="1">
          <mxGeometry relative="1" as="geometry">
            <mxPoint x="976" y="402" as="sourcePoint" />
            <mxPoint x="1136" y="402" as="targetPoint" />
          </mxGeometry>
        </mxCell>
        <mxCell id="lVBCcf4ss-iberl4f2fq-5" value="N" style="resizable=0;html=1;whiteSpace=wrap;align=right;verticalAlign=bottom;" parent="lVBCcf4ss-iberl4f2fq-4" connectable="0" vertex="1">
          <mxGeometry x="1" relative="1" as="geometry">
            <mxPoint x="2" y="-4" as="offset" />
          </mxGeometry>
        </mxCell>
        <mxCell id="uT0Ym_xsnKb3VECdtyGS-2" value="User" style="swimlane;childLayout=stackLayout;horizontal=1;startSize=50;horizontalStack=0;rounded=1;fontSize=14;fontStyle=0;strokeWidth=2;resizeParent=0;resizeLast=1;shadow=0;dashed=0;align=center;arcSize=4;whiteSpace=wrap;html=1;" vertex="1" parent="1">
          <mxGeometry x="-800" y="-98" width="240" height="148" as="geometry" />
        </mxCell>
        <mxCell id="uT0Ym_xsnKb3VECdtyGS-3" value="User ID , Name, Email , Default Address&lt;br&gt;Phone ," style="align=left;strokeColor=none;fillColor=none;spacingLeft=4;fontSize=12;verticalAlign=top;resizable=0;rotatable=0;part=1;html=1;" vertex="1" parent="uT0Ym_xsnKb3VECdtyGS-2">
          <mxGeometry y="50" width="240" height="98" as="geometry" />
        </mxCell>
        <mxCell id="uT0Ym_xsnKb3VECdtyGS-4" value="Product" style="swimlane;childLayout=stackLayout;horizontal=1;startSize=50;horizontalStack=0;rounded=1;fontSize=14;fontStyle=0;strokeWidth=2;resizeParent=0;resizeLast=1;shadow=0;dashed=0;align=center;arcSize=4;whiteSpace=wrap;html=1;" vertex="1" parent="1">
          <mxGeometry x="-800" y="191" width="240" height="130" as="geometry" />
        </mxCell>
        <mxCell id="uT0Ym_xsnKb3VECdtyGS-5" value="Product ID, Name, Price, Description" style="align=left;strokeColor=none;fillColor=none;spacingLeft=4;fontSize=12;verticalAlign=top;resizable=0;rotatable=0;part=1;html=1;" vertex="1" parent="uT0Ym_xsnKb3VECdtyGS-4">
          <mxGeometry y="50" width="240" height="80" as="geometry" />
        </mxCell>
        <mxCell id="uT0Ym_xsnKb3VECdtyGS-8" value="Order" style="swimlane;childLayout=stackLayout;horizontal=1;startSize=50;horizontalStack=0;rounded=1;fontSize=14;fontStyle=0;strokeWidth=2;resizeParent=0;resizeLast=1;shadow=0;dashed=0;align=center;arcSize=4;whiteSpace=wrap;html=1;" vertex="1" parent="1">
          <mxGeometry x="-800" y="335" width="240" height="119" as="geometry" />
        </mxCell>
        <mxCell id="uT0Ym_xsnKb3VECdtyGS-9" value="Order ID, Order Date, Total Amount, Status,&lt;br&gt;PromotionID" style="align=left;strokeColor=none;fillColor=none;spacingLeft=4;fontSize=12;verticalAlign=top;resizable=0;rotatable=0;part=1;html=1;" vertex="1" parent="uT0Ym_xsnKb3VECdtyGS-8">
          <mxGeometry y="50" width="240" height="69" as="geometry" />
        </mxCell>
        <mxCell id="uT0Ym_xsnKb3VECdtyGS-10" value="Delivery" style="swimlane;childLayout=stackLayout;horizontal=1;startSize=50;horizontalStack=0;rounded=1;fontSize=14;fontStyle=0;strokeWidth=2;resizeParent=0;resizeLast=1;shadow=0;dashed=0;align=center;arcSize=4;whiteSpace=wrap;html=1;" vertex="1" parent="1">
          <mxGeometry x="-800" y="476" width="250" height="125" as="geometry" />
        </mxCell>
        <mxCell id="uT0Ym_xsnKb3VECdtyGS-11" value="Delivery ID, Address, &lt;br&gt;***Estimated Delivery Date" style="align=left;strokeColor=none;fillColor=none;spacingLeft=4;fontSize=12;verticalAlign=top;resizable=0;rotatable=0;part=1;html=1;" vertex="1" parent="uT0Ym_xsnKb3VECdtyGS-10">
          <mxGeometry y="50" width="250" height="75" as="geometry" />
        </mxCell>
        <mxCell id="uT0Ym_xsnKb3VECdtyGS-12" value="Payment" style="swimlane;childLayout=stackLayout;horizontal=1;startSize=50;horizontalStack=0;rounded=1;fontSize=14;fontStyle=0;strokeWidth=2;resizeParent=0;resizeLast=1;shadow=0;dashed=0;align=center;arcSize=4;whiteSpace=wrap;html=1;" vertex="1" parent="1">
          <mxGeometry x="-800" y="629" width="250" height="132" as="geometry" />
        </mxCell>
        <mxCell id="uT0Ym_xsnKb3VECdtyGS-18" value="ID, Amount, Method: PayPal,&lt;div&gt;Status, Transaction ID&lt;/div&gt;" style="text;html=1;align=center;verticalAlign=middle;resizable=0;points=[];autosize=1;strokeColor=none;fillColor=none;" vertex="1" parent="uT0Ym_xsnKb3VECdtyGS-12">
          <mxGeometry y="50" width="250" height="82" as="geometry" />
        </mxCell>
        <mxCell id="uT0Ym_xsnKb3VECdtyGS-14" value="Category" style="swimlane;childLayout=stackLayout;horizontal=1;startSize=50;horizontalStack=0;rounded=1;fontSize=14;fontStyle=0;strokeWidth=2;resizeParent=0;resizeLast=1;shadow=0;dashed=0;align=center;arcSize=4;whiteSpace=wrap;html=1;" vertex="1" parent="1">
          <mxGeometry x="-800" y="781" width="250" height="110" as="geometry" />
        </mxCell>
        <mxCell id="uT0Ym_xsnKb3VECdtyGS-15" value="Category ID, Name, Description" style="align=left;strokeColor=none;fillColor=none;spacingLeft=4;fontSize=12;verticalAlign=top;resizable=0;rotatable=0;part=1;html=1;" vertex="1" parent="uT0Ym_xsnKb3VECdtyGS-14">
          <mxGeometry y="50" width="250" height="60" as="geometry" />
        </mxCell>
        <mxCell id="uT0Ym_xsnKb3VECdtyGS-16" value="Comments" style="swimlane;childLayout=stackLayout;horizontal=1;startSize=50;horizontalStack=0;rounded=1;fontSize=14;fontStyle=0;strokeWidth=2;resizeParent=0;resizeLast=1;shadow=0;dashed=0;align=center;arcSize=4;whiteSpace=wrap;html=1;" vertex="1" parent="1">
          <mxGeometry x="-800" y="911" width="250" height="120" as="geometry" />
        </mxCell>
        <mxCell id="uT0Ym_xsnKb3VECdtyGS-17" value="Comment ID, User ID, Product ID, Text, Date&lt;br&gt;,***Rate" style="align=left;strokeColor=none;fillColor=none;spacingLeft=4;fontSize=12;verticalAlign=top;resizable=0;rotatable=0;part=1;html=1;" vertex="1" parent="uT0Ym_xsnKb3VECdtyGS-16">
          <mxGeometry y="50" width="250" height="70" as="geometry" />
        </mxCell>
        <mxCell id="uT0Ym_xsnKb3VECdtyGS-19" value="Table" style="shape=table;startSize=30;container=1;collapsible=1;childLayout=tableLayout;fixedRows=1;rowLines=0;fontStyle=1;align=center;resizeLast=1;html=1;" vertex="1" parent="1">
          <mxGeometry x="-540" y="-105" width="180" height="185" as="geometry" />
        </mxCell>
        <mxCell id="uT0Ym_xsnKb3VECdtyGS-20" value="" style="shape=tableRow;horizontal=0;startSize=0;swimlaneHead=0;swimlaneBody=0;fillColor=none;collapsible=0;dropTarget=0;points=[[0,0.5],[1,0.5]];portConstraint=eastwest;top=0;left=0;right=0;bottom=1;" vertex="1" parent="uT0Ym_xsnKb3VECdtyGS-19">
          <mxGeometry y="30" width="180" height="30" as="geometry" />
        </mxCell>
        <mxCell id="uT0Ym_xsnKb3VECdtyGS-21" value="PK" style="shape=partialRectangle;connectable=0;fillColor=none;top=0;left=0;bottom=0;right=0;fontStyle=1;overflow=hidden;whiteSpace=wrap;html=1;" vertex="1" parent="uT0Ym_xsnKb3VECdtyGS-20">
          <mxGeometry width="30" height="30" as="geometry">
            <mxRectangle width="30" height="30" as="alternateBounds" />
          </mxGeometry>
        </mxCell>
        <mxCell id="uT0Ym_xsnKb3VECdtyGS-22" value="&lt;span style=&quot;font-weight: 400; text-wrap: nowrap;&quot;&gt;User ID(int)&lt;/span&gt;" style="shape=partialRectangle;connectable=0;fillColor=none;top=0;left=0;bottom=0;right=0;align=left;spacingLeft=6;fontStyle=5;overflow=hidden;whiteSpace=wrap;html=1;" vertex="1" parent="uT0Ym_xsnKb3VECdtyGS-20">
          <mxGeometry x="30" width="150" height="30" as="geometry">
            <mxRectangle width="150" height="30" as="alternateBounds" />
          </mxGeometry>
        </mxCell>
        <mxCell id="uT0Ym_xsnKb3VECdtyGS-23" value="" style="shape=tableRow;horizontal=0;startSize=0;swimlaneHead=0;swimlaneBody=0;fillColor=none;collapsible=0;dropTarget=0;points=[[0,0.5],[1,0.5]];portConstraint=eastwest;top=0;left=0;right=0;bottom=0;" vertex="1" parent="uT0Ym_xsnKb3VECdtyGS-19">
          <mxGeometry y="60" width="180" height="38" as="geometry" />
        </mxCell>
        <mxCell id="uT0Ym_xsnKb3VECdtyGS-24" value="" style="shape=partialRectangle;connectable=0;fillColor=none;top=0;left=0;bottom=0;right=0;editable=1;overflow=hidden;whiteSpace=wrap;html=1;" vertex="1" parent="uT0Ym_xsnKb3VECdtyGS-23">
          <mxGeometry width="30" height="38" as="geometry">
            <mxRectangle width="30" height="38" as="alternateBounds" />
          </mxGeometry>
        </mxCell>
        <mxCell id="uT0Ym_xsnKb3VECdtyGS-25" value="&lt;span style=&quot;text-wrap: nowrap;&quot;&gt;Name(String)&lt;span style=&quot;white-space: pre;&quot;&gt;&#x9;&lt;/span&gt;&lt;/span&gt;" style="shape=partialRectangle;connectable=0;fillColor=none;top=0;left=0;bottom=0;right=0;align=left;spacingLeft=6;overflow=hidden;whiteSpace=wrap;html=1;" vertex="1" parent="uT0Ym_xsnKb3VECdtyGS-23">
          <mxGeometry x="30" width="150" height="38" as="geometry">
            <mxRectangle width="150" height="38" as="alternateBounds" />
          </mxGeometry>
        </mxCell>
        <mxCell id="uT0Ym_xsnKb3VECdtyGS-26" value="" style="shape=tableRow;horizontal=0;startSize=0;swimlaneHead=0;swimlaneBody=0;fillColor=none;collapsible=0;dropTarget=0;points=[[0,0.5],[1,0.5]];portConstraint=eastwest;top=0;left=0;right=0;bottom=0;" vertex="1" parent="uT0Ym_xsnKb3VECdtyGS-19">
          <mxGeometry y="98" width="180" height="30" as="geometry" />
        </mxCell>
        <mxCell id="uT0Ym_xsnKb3VECdtyGS-27" value="" style="shape=partialRectangle;connectable=0;fillColor=none;top=0;left=0;bottom=0;right=0;editable=1;overflow=hidden;whiteSpace=wrap;html=1;" vertex="1" parent="uT0Ym_xsnKb3VECdtyGS-26">
          <mxGeometry width="30" height="30" as="geometry">
            <mxRectangle width="30" height="30" as="alternateBounds" />
          </mxGeometry>
        </mxCell>
        <mxCell id="uT0Ym_xsnKb3VECdtyGS-28" value="&lt;span style=&quot;text-wrap: nowrap;&quot;&gt;Email (String)&lt;/span&gt;" style="shape=partialRectangle;connectable=0;fillColor=none;top=0;left=0;bottom=0;right=0;align=left;spacingLeft=6;overflow=hidden;whiteSpace=wrap;html=1;" vertex="1" parent="uT0Ym_xsnKb3VECdtyGS-26">
          <mxGeometry x="30" width="150" height="30" as="geometry">
            <mxRectangle width="150" height="30" as="alternateBounds" />
          </mxGeometry>
        </mxCell>
        <mxCell id="uT0Ym_xsnKb3VECdtyGS-29" value="" style="shape=tableRow;horizontal=0;startSize=0;swimlaneHead=0;swimlaneBody=0;fillColor=none;collapsible=0;dropTarget=0;points=[[0,0.5],[1,0.5]];portConstraint=eastwest;top=0;left=0;right=0;bottom=0;" vertex="1" parent="uT0Ym_xsnKb3VECdtyGS-19">
          <mxGeometry y="128" width="180" height="28" as="geometry" />
        </mxCell>
        <mxCell id="uT0Ym_xsnKb3VECdtyGS-30" value="" style="shape=partialRectangle;connectable=0;fillColor=none;top=0;left=0;bottom=0;right=0;editable=1;overflow=hidden;whiteSpace=wrap;html=1;" vertex="1" parent="uT0Ym_xsnKb3VECdtyGS-29">
          <mxGeometry width="30" height="28" as="geometry">
            <mxRectangle width="30" height="28" as="alternateBounds" />
          </mxGeometry>
        </mxCell>
        <mxCell id="uT0Ym_xsnKb3VECdtyGS-31" value="&lt;span style=&quot;text-wrap: nowrap;&quot;&gt;Default Address(String)&lt;/span&gt;" style="shape=partialRectangle;connectable=0;fillColor=none;top=0;left=0;bottom=0;right=0;align=left;spacingLeft=6;overflow=hidden;whiteSpace=wrap;html=1;" vertex="1" parent="uT0Ym_xsnKb3VECdtyGS-29">
          <mxGeometry x="30" width="150" height="28" as="geometry">
            <mxRectangle width="150" height="28" as="alternateBounds" />
          </mxGeometry>
        </mxCell>
        <mxCell id="uT0Ym_xsnKb3VECdtyGS-45" value="" style="shape=partialRectangle;connectable=0;fillColor=none;top=0;left=0;bottom=0;right=0;editable=1;overflow=hidden;whiteSpace=wrap;html=1;" vertex="1" parent="1">
          <mxGeometry x="-540" y="20" width="30" height="30" as="geometry">
            <mxRectangle width="30" height="30" as="alternateBounds" />
          </mxGeometry>
        </mxCell>
        <mxCell id="uT0Ym_xsnKb3VECdtyGS-46" value="&lt;span style=&quot;text-wrap: nowrap;&quot;&gt;Phone (String)&lt;/span&gt;" style="shape=partialRectangle;connectable=0;fillColor=none;top=0;left=0;bottom=0;right=0;align=left;spacingLeft=6;overflow=hidden;whiteSpace=wrap;html=1;" vertex="1" parent="1">
          <mxGeometry x="-510" y="50" width="150" height="28" as="geometry">
            <mxRectangle width="150" height="28" as="alternateBounds" />
          </mxGeometry>
        </mxCell>
        <mxCell id="uT0Ym_xsnKb3VECdtyGS-47" value="" style="endArrow=none;html=1;rounded=0;" edge="1" parent="1">
          <mxGeometry relative="1" as="geometry">
            <mxPoint x="-510" y="80" as="sourcePoint" />
            <mxPoint x="-510" y="50" as="targetPoint" />
          </mxGeometry>
        </mxCell>
        <mxCell id="uT0Ym_xsnKb3VECdtyGS-50" value="" style="line;strokeWidth=1;rotatable=0;dashed=0;labelPosition=right;align=left;verticalAlign=middle;spacingTop=0;spacingLeft=6;points=[];portConstraint=eastwest;" vertex="1" parent="1">
          <mxGeometry x="-560" y="-10" width="20" height="10" as="geometry" />
        </mxCell>
        <mxCell id="uT0Ym_xsnKb3VECdtyGS-51" value="Table" style="shape=table;startSize=30;container=1;collapsible=1;childLayout=tableLayout;fixedRows=1;rowLines=0;fontStyle=1;align=center;resizeLast=1;html=1;" vertex="1" parent="1">
          <mxGeometry x="-240" y="260" width="180" height="178" as="geometry" />
        </mxCell>
        <mxCell id="uT0Ym_xsnKb3VECdtyGS-52" value="" style="shape=tableRow;horizontal=0;startSize=0;swimlaneHead=0;swimlaneBody=0;fillColor=none;collapsible=0;dropTarget=0;points=[[0,0.5],[1,0.5]];portConstraint=eastwest;top=0;left=0;right=0;bottom=1;" vertex="1" parent="uT0Ym_xsnKb3VECdtyGS-51">
          <mxGeometry y="30" width="180" height="30" as="geometry" />
        </mxCell>
        <mxCell id="uT0Ym_xsnKb3VECdtyGS-53" value="PK" style="shape=partialRectangle;connectable=0;fillColor=none;top=0;left=0;bottom=0;right=0;fontStyle=1;overflow=hidden;whiteSpace=wrap;html=1;" vertex="1" parent="uT0Ym_xsnKb3VECdtyGS-52">
          <mxGeometry width="30" height="30" as="geometry">
            <mxRectangle width="30" height="30" as="alternateBounds" />
          </mxGeometry>
        </mxCell>
        <mxCell id="uT0Ym_xsnKb3VECdtyGS-54" value="&lt;span style=&quot;font-weight: 400; text-wrap: nowrap;&quot;&gt;Order ID(Int)&lt;/span&gt;" style="shape=partialRectangle;connectable=0;fillColor=none;top=0;left=0;bottom=0;right=0;align=left;spacingLeft=6;fontStyle=5;overflow=hidden;whiteSpace=wrap;html=1;" vertex="1" parent="uT0Ym_xsnKb3VECdtyGS-52">
          <mxGeometry x="30" width="150" height="30" as="geometry">
            <mxRectangle width="150" height="30" as="alternateBounds" />
          </mxGeometry>
        </mxCell>
        <mxCell id="uT0Ym_xsnKb3VECdtyGS-58" value="" style="shape=tableRow;horizontal=0;startSize=0;swimlaneHead=0;swimlaneBody=0;fillColor=none;collapsible=0;dropTarget=0;points=[[0,0.5],[1,0.5]];portConstraint=eastwest;top=0;left=0;right=0;bottom=0;" vertex="1" parent="uT0Ym_xsnKb3VECdtyGS-51">
          <mxGeometry y="60" width="180" height="30" as="geometry" />
        </mxCell>
        <mxCell id="uT0Ym_xsnKb3VECdtyGS-59" value="&lt;b&gt;FK&lt;/b&gt;" style="shape=partialRectangle;connectable=0;fillColor=none;top=0;left=0;bottom=0;right=0;editable=1;overflow=hidden;whiteSpace=wrap;html=1;" vertex="1" parent="uT0Ym_xsnKb3VECdtyGS-58">
          <mxGeometry width="30" height="30" as="geometry">
            <mxRectangle width="30" height="30" as="alternateBounds" />
          </mxGeometry>
        </mxCell>
        <mxCell id="uT0Ym_xsnKb3VECdtyGS-60" value="&lt;span style=&quot;text-wrap: nowrap;&quot;&gt;PromotionID(Int)&lt;/span&gt;" style="shape=partialRectangle;connectable=0;fillColor=none;top=0;left=0;bottom=0;right=0;align=left;spacingLeft=6;overflow=hidden;whiteSpace=wrap;html=1;" vertex="1" parent="uT0Ym_xsnKb3VECdtyGS-58">
          <mxGeometry x="30" width="150" height="30" as="geometry">
            <mxRectangle width="150" height="30" as="alternateBounds" />
          </mxGeometry>
        </mxCell>
        <mxCell id="uT0Ym_xsnKb3VECdtyGS-61" value="" style="shape=tableRow;horizontal=0;startSize=0;swimlaneHead=0;swimlaneBody=0;fillColor=none;collapsible=0;dropTarget=0;points=[[0,0.5],[1,0.5]];portConstraint=eastwest;top=0;left=0;right=0;bottom=0;" vertex="1" parent="uT0Ym_xsnKb3VECdtyGS-51">
          <mxGeometry y="90" width="180" height="28" as="geometry" />
        </mxCell>
        <mxCell id="uT0Ym_xsnKb3VECdtyGS-62" value="" style="shape=partialRectangle;connectable=0;fillColor=none;top=0;left=0;bottom=0;right=0;editable=1;overflow=hidden;whiteSpace=wrap;html=1;" vertex="1" parent="uT0Ym_xsnKb3VECdtyGS-61">
          <mxGeometry width="30" height="28" as="geometry">
            <mxRectangle width="30" height="28" as="alternateBounds" />
          </mxGeometry>
        </mxCell>
        <mxCell id="uT0Ym_xsnKb3VECdtyGS-63" value="&lt;span style=&quot;text-wrap: nowrap;&quot;&gt;Status (Int)&lt;/span&gt;" style="shape=partialRectangle;connectable=0;fillColor=none;top=0;left=0;bottom=0;right=0;align=left;spacingLeft=6;overflow=hidden;whiteSpace=wrap;html=1;" vertex="1" parent="uT0Ym_xsnKb3VECdtyGS-61">
          <mxGeometry x="30" width="150" height="28" as="geometry">
            <mxRectangle width="150" height="28" as="alternateBounds" />
          </mxGeometry>
        </mxCell>
        <mxCell id="uT0Ym_xsnKb3VECdtyGS-55" value="" style="shape=tableRow;horizontal=0;startSize=0;swimlaneHead=0;swimlaneBody=0;fillColor=none;collapsible=0;dropTarget=0;points=[[0,0.5],[1,0.5]];portConstraint=eastwest;top=0;left=0;right=0;bottom=0;" vertex="1" parent="uT0Ym_xsnKb3VECdtyGS-51">
          <mxGeometry y="118" width="180" height="30" as="geometry" />
        </mxCell>
        <mxCell id="uT0Ym_xsnKb3VECdtyGS-56" value="" style="shape=partialRectangle;connectable=0;fillColor=none;top=0;left=0;bottom=0;right=0;editable=1;overflow=hidden;whiteSpace=wrap;html=1;" vertex="1" parent="uT0Ym_xsnKb3VECdtyGS-55">
          <mxGeometry width="30" height="30" as="geometry">
            <mxRectangle width="30" height="30" as="alternateBounds" />
          </mxGeometry>
        </mxCell>
        <mxCell id="uT0Ym_xsnKb3VECdtyGS-57" value="&lt;span style=&quot;text-wrap: nowrap;&quot;&gt;Oder Date (DateTime)&lt;/span&gt;" style="shape=partialRectangle;connectable=0;fillColor=none;top=0;left=0;bottom=0;right=0;align=left;spacingLeft=6;overflow=hidden;whiteSpace=wrap;html=1;" vertex="1" parent="uT0Ym_xsnKb3VECdtyGS-55">
          <mxGeometry x="30" width="150" height="30" as="geometry">
            <mxRectangle width="150" height="30" as="alternateBounds" />
          </mxGeometry>
        </mxCell>
        <mxCell id="uT0Ym_xsnKb3VECdtyGS-213" value="" style="shape=tableRow;horizontal=0;startSize=0;swimlaneHead=0;swimlaneBody=0;fillColor=none;collapsible=0;dropTarget=0;points=[[0,0.5],[1,0.5]];portConstraint=eastwest;top=0;left=0;right=0;bottom=0;" vertex="1" parent="uT0Ym_xsnKb3VECdtyGS-51">
          <mxGeometry y="148" width="180" height="30" as="geometry" />
        </mxCell>
        <mxCell id="uT0Ym_xsnKb3VECdtyGS-214" value="" style="shape=partialRectangle;connectable=0;fillColor=none;top=0;left=0;bottom=0;right=0;editable=1;overflow=hidden;" vertex="1" parent="uT0Ym_xsnKb3VECdtyGS-213">
          <mxGeometry width="30" height="30" as="geometry">
            <mxRectangle width="30" height="30" as="alternateBounds" />
          </mxGeometry>
        </mxCell>
        <mxCell id="uT0Ym_xsnKb3VECdtyGS-215" value="Row" style="shape=partialRectangle;connectable=0;fillColor=none;top=0;left=0;bottom=0;right=0;align=left;spacingLeft=6;overflow=hidden;" vertex="1" parent="uT0Ym_xsnKb3VECdtyGS-213">
          <mxGeometry x="30" width="150" height="30" as="geometry">
            <mxRectangle width="150" height="30" as="alternateBounds" />
          </mxGeometry>
        </mxCell>
        <mxCell id="uT0Ym_xsnKb3VECdtyGS-65" value="" style="shape=partialRectangle;connectable=0;fillColor=none;top=0;left=0;bottom=0;right=0;align=left;spacingLeft=6;overflow=hidden;whiteSpace=wrap;html=1;" vertex="1" parent="1">
          <mxGeometry x="-270" y="377" width="150" height="28" as="geometry">
            <mxRectangle width="150" height="28" as="alternateBounds" />
          </mxGeometry>
        </mxCell>
        <mxCell id="uT0Ym_xsnKb3VECdtyGS-67" value="Table" style="shape=table;startSize=30;container=1;collapsible=1;childLayout=tableLayout;fixedRows=1;rowLines=0;fontStyle=1;align=center;resizeLast=1;html=1;" vertex="1" parent="1">
          <mxGeometry x="-225" y="679" width="180" height="156" as="geometry" />
        </mxCell>
        <mxCell id="uT0Ym_xsnKb3VECdtyGS-68" value="" style="shape=tableRow;horizontal=0;startSize=0;swimlaneHead=0;swimlaneBody=0;fillColor=none;collapsible=0;dropTarget=0;points=[[0,0.5],[1,0.5]];portConstraint=eastwest;top=0;left=0;right=0;bottom=1;" vertex="1" parent="uT0Ym_xsnKb3VECdtyGS-67">
          <mxGeometry y="30" width="180" height="30" as="geometry" />
        </mxCell>
        <mxCell id="uT0Ym_xsnKb3VECdtyGS-69" value="PK" style="shape=partialRectangle;connectable=0;fillColor=none;top=0;left=0;bottom=0;right=0;fontStyle=1;overflow=hidden;whiteSpace=wrap;html=1;" vertex="1" parent="uT0Ym_xsnKb3VECdtyGS-68">
          <mxGeometry width="30" height="30" as="geometry">
            <mxRectangle width="30" height="30" as="alternateBounds" />
          </mxGeometry>
        </mxCell>
        <mxCell id="uT0Ym_xsnKb3VECdtyGS-70" value="&lt;span style=&quot;font-weight: 400; text-wrap: nowrap;&quot;&gt;PaymentID(Int)&lt;/span&gt;" style="shape=partialRectangle;connectable=0;fillColor=none;top=0;left=0;bottom=0;right=0;align=left;spacingLeft=6;fontStyle=5;overflow=hidden;whiteSpace=wrap;html=1;" vertex="1" parent="uT0Ym_xsnKb3VECdtyGS-68">
          <mxGeometry x="30" width="150" height="30" as="geometry">
            <mxRectangle width="150" height="30" as="alternateBounds" />
          </mxGeometry>
        </mxCell>
        <mxCell id="uT0Ym_xsnKb3VECdtyGS-71" value="" style="shape=tableRow;horizontal=0;startSize=0;swimlaneHead=0;swimlaneBody=0;fillColor=none;collapsible=0;dropTarget=0;points=[[0,0.5],[1,0.5]];portConstraint=eastwest;top=0;left=0;right=0;bottom=0;" vertex="1" parent="uT0Ym_xsnKb3VECdtyGS-67">
          <mxGeometry y="60" width="180" height="38" as="geometry" />
        </mxCell>
        <mxCell id="uT0Ym_xsnKb3VECdtyGS-72" value="" style="shape=partialRectangle;connectable=0;fillColor=none;top=0;left=0;bottom=0;right=0;editable=1;overflow=hidden;whiteSpace=wrap;html=1;" vertex="1" parent="uT0Ym_xsnKb3VECdtyGS-71">
          <mxGeometry width="30" height="38" as="geometry">
            <mxRectangle width="30" height="38" as="alternateBounds" />
          </mxGeometry>
        </mxCell>
        <mxCell id="uT0Ym_xsnKb3VECdtyGS-73" value="&lt;span style=&quot;text-wrap: nowrap;&quot;&gt;Method (Int)&lt;/span&gt;" style="shape=partialRectangle;connectable=0;fillColor=none;top=0;left=0;bottom=0;right=0;align=left;spacingLeft=6;overflow=hidden;whiteSpace=wrap;html=1;" vertex="1" parent="uT0Ym_xsnKb3VECdtyGS-71">
          <mxGeometry x="30" width="150" height="38" as="geometry">
            <mxRectangle width="150" height="38" as="alternateBounds" />
          </mxGeometry>
        </mxCell>
        <mxCell id="uT0Ym_xsnKb3VECdtyGS-74" value="" style="shape=tableRow;horizontal=0;startSize=0;swimlaneHead=0;swimlaneBody=0;fillColor=none;collapsible=0;dropTarget=0;points=[[0,0.5],[1,0.5]];portConstraint=eastwest;top=0;left=0;right=0;bottom=0;" vertex="1" parent="uT0Ym_xsnKb3VECdtyGS-67">
          <mxGeometry y="98" width="180" height="30" as="geometry" />
        </mxCell>
        <mxCell id="uT0Ym_xsnKb3VECdtyGS-75" value="" style="shape=partialRectangle;connectable=0;fillColor=none;top=0;left=0;bottom=0;right=0;editable=1;overflow=hidden;whiteSpace=wrap;html=1;" vertex="1" parent="uT0Ym_xsnKb3VECdtyGS-74">
          <mxGeometry width="30" height="30" as="geometry">
            <mxRectangle width="30" height="30" as="alternateBounds" />
          </mxGeometry>
        </mxCell>
        <mxCell id="uT0Ym_xsnKb3VECdtyGS-76" value="&lt;span style=&quot;text-wrap: nowrap;&quot;&gt;Status(Int)&lt;/span&gt;" style="shape=partialRectangle;connectable=0;fillColor=none;top=0;left=0;bottom=0;right=0;align=left;spacingLeft=6;overflow=hidden;whiteSpace=wrap;html=1;" vertex="1" parent="uT0Ym_xsnKb3VECdtyGS-74">
          <mxGeometry x="30" width="150" height="30" as="geometry">
            <mxRectangle width="150" height="30" as="alternateBounds" />
          </mxGeometry>
        </mxCell>
        <mxCell id="uT0Ym_xsnKb3VECdtyGS-77" value="" style="shape=tableRow;horizontal=0;startSize=0;swimlaneHead=0;swimlaneBody=0;fillColor=none;collapsible=0;dropTarget=0;points=[[0,0.5],[1,0.5]];portConstraint=eastwest;top=0;left=0;right=0;bottom=0;" vertex="1" parent="uT0Ym_xsnKb3VECdtyGS-67">
          <mxGeometry y="128" width="180" height="28" as="geometry" />
        </mxCell>
        <mxCell id="uT0Ym_xsnKb3VECdtyGS-78" value="" style="shape=partialRectangle;connectable=0;fillColor=none;top=0;left=0;bottom=0;right=0;editable=1;overflow=hidden;whiteSpace=wrap;html=1;" vertex="1" parent="uT0Ym_xsnKb3VECdtyGS-77">
          <mxGeometry width="30" height="28" as="geometry">
            <mxRectangle width="30" height="28" as="alternateBounds" />
          </mxGeometry>
        </mxCell>
        <mxCell id="uT0Ym_xsnKb3VECdtyGS-79" value="&lt;span style=&quot;text-wrap: nowrap;&quot;&gt;TracsactionID(String)&lt;/span&gt;" style="shape=partialRectangle;connectable=0;fillColor=none;top=0;left=0;bottom=0;right=0;align=left;spacingLeft=6;overflow=hidden;whiteSpace=wrap;html=1;" vertex="1" parent="uT0Ym_xsnKb3VECdtyGS-77">
          <mxGeometry x="30" width="150" height="28" as="geometry">
            <mxRectangle width="150" height="28" as="alternateBounds" />
          </mxGeometry>
        </mxCell>
        <mxCell id="uT0Ym_xsnKb3VECdtyGS-80" value="" style="shape=partialRectangle;connectable=0;fillColor=none;top=0;left=0;bottom=0;right=0;editable=1;overflow=hidden;whiteSpace=wrap;html=1;" vertex="1" parent="1">
          <mxGeometry x="-150" y="8.5" width="30" height="30" as="geometry">
            <mxRectangle width="30" height="30" as="alternateBounds" />
          </mxGeometry>
        </mxCell>
        <mxCell id="uT0Ym_xsnKb3VECdtyGS-99" value="Table" style="shape=table;startSize=30;container=1;collapsible=1;childLayout=tableLayout;fixedRows=1;rowLines=0;fontStyle=1;align=center;resizeLast=1;html=1;" vertex="1" parent="1">
          <mxGeometry x="-225" y="846" width="175" height="128" as="geometry" />
        </mxCell>
        <mxCell id="uT0Ym_xsnKb3VECdtyGS-100" value="" style="shape=tableRow;horizontal=0;startSize=0;swimlaneHead=0;swimlaneBody=0;fillColor=none;collapsible=0;dropTarget=0;points=[[0,0.5],[1,0.5]];portConstraint=eastwest;top=0;left=0;right=0;bottom=1;" vertex="1" parent="uT0Ym_xsnKb3VECdtyGS-99">
          <mxGeometry y="30" width="175" height="30" as="geometry" />
        </mxCell>
        <mxCell id="uT0Ym_xsnKb3VECdtyGS-101" value="PK" style="shape=partialRectangle;connectable=0;fillColor=none;top=0;left=0;bottom=0;right=0;fontStyle=1;overflow=hidden;whiteSpace=wrap;html=1;" vertex="1" parent="uT0Ym_xsnKb3VECdtyGS-100">
          <mxGeometry width="30" height="30" as="geometry">
            <mxRectangle width="30" height="30" as="alternateBounds" />
          </mxGeometry>
        </mxCell>
        <mxCell id="uT0Ym_xsnKb3VECdtyGS-102" value="&lt;span style=&quot;font-weight: 400; text-wrap: nowrap;&quot;&gt;CategoryID(Int)&lt;/span&gt;" style="shape=partialRectangle;connectable=0;fillColor=none;top=0;left=0;bottom=0;right=0;align=left;spacingLeft=6;fontStyle=5;overflow=hidden;whiteSpace=wrap;html=1;" vertex="1" parent="uT0Ym_xsnKb3VECdtyGS-100">
          <mxGeometry x="30" width="145" height="30" as="geometry">
            <mxRectangle width="145" height="30" as="alternateBounds" />
          </mxGeometry>
        </mxCell>
        <mxCell id="uT0Ym_xsnKb3VECdtyGS-103" value="" style="shape=tableRow;horizontal=0;startSize=0;swimlaneHead=0;swimlaneBody=0;fillColor=none;collapsible=0;dropTarget=0;points=[[0,0.5],[1,0.5]];portConstraint=eastwest;top=0;left=0;right=0;bottom=0;" vertex="1" parent="uT0Ym_xsnKb3VECdtyGS-99">
          <mxGeometry y="60" width="175" height="38" as="geometry" />
        </mxCell>
        <mxCell id="uT0Ym_xsnKb3VECdtyGS-104" value="" style="shape=partialRectangle;connectable=0;fillColor=none;top=0;left=0;bottom=0;right=0;editable=1;overflow=hidden;whiteSpace=wrap;html=1;" vertex="1" parent="uT0Ym_xsnKb3VECdtyGS-103">
          <mxGeometry width="30" height="38" as="geometry">
            <mxRectangle width="30" height="38" as="alternateBounds" />
          </mxGeometry>
        </mxCell>
        <mxCell id="uT0Ym_xsnKb3VECdtyGS-105" value="&lt;span style=&quot;text-wrap: nowrap;&quot;&gt;Name(String)&lt;span style=&quot;white-space: pre;&quot;&gt;&#x9;&lt;/span&gt;&lt;/span&gt;" style="shape=partialRectangle;connectable=0;fillColor=none;top=0;left=0;bottom=0;right=0;align=left;spacingLeft=6;overflow=hidden;whiteSpace=wrap;html=1;" vertex="1" parent="uT0Ym_xsnKb3VECdtyGS-103">
          <mxGeometry x="30" width="145" height="38" as="geometry">
            <mxRectangle width="145" height="38" as="alternateBounds" />
          </mxGeometry>
        </mxCell>
        <mxCell id="uT0Ym_xsnKb3VECdtyGS-106" value="" style="shape=tableRow;horizontal=0;startSize=0;swimlaneHead=0;swimlaneBody=0;fillColor=none;collapsible=0;dropTarget=0;points=[[0,0.5],[1,0.5]];portConstraint=eastwest;top=0;left=0;right=0;bottom=0;" vertex="1" parent="uT0Ym_xsnKb3VECdtyGS-99">
          <mxGeometry y="98" width="175" height="30" as="geometry" />
        </mxCell>
        <mxCell id="uT0Ym_xsnKb3VECdtyGS-107" value="" style="shape=partialRectangle;connectable=0;fillColor=none;top=0;left=0;bottom=0;right=0;editable=1;overflow=hidden;whiteSpace=wrap;html=1;" vertex="1" parent="uT0Ym_xsnKb3VECdtyGS-106">
          <mxGeometry width="30" height="30" as="geometry">
            <mxRectangle width="30" height="30" as="alternateBounds" />
          </mxGeometry>
        </mxCell>
        <mxCell id="uT0Ym_xsnKb3VECdtyGS-108" value="&lt;span style=&quot;text-wrap: nowrap;&quot;&gt;Description(String)&lt;/span&gt;" style="shape=partialRectangle;connectable=0;fillColor=none;top=0;left=0;bottom=0;right=0;align=left;spacingLeft=6;overflow=hidden;whiteSpace=wrap;html=1;" vertex="1" parent="uT0Ym_xsnKb3VECdtyGS-106">
          <mxGeometry x="30" width="145" height="30" as="geometry">
            <mxRectangle width="145" height="30" as="alternateBounds" />
          </mxGeometry>
        </mxCell>
        <mxCell id="uT0Ym_xsnKb3VECdtyGS-112" value="" style="shape=partialRectangle;connectable=0;fillColor=none;top=0;left=0;bottom=0;right=0;editable=1;overflow=hidden;whiteSpace=wrap;html=1;" vertex="1" parent="1">
          <mxGeometry x="-500" y="60" width="30" height="30" as="geometry">
            <mxRectangle width="30" height="30" as="alternateBounds" />
          </mxGeometry>
        </mxCell>
        <mxCell id="uT0Ym_xsnKb3VECdtyGS-115" value="Table" style="shape=table;startSize=30;container=1;collapsible=1;childLayout=tableLayout;fixedRows=1;rowLines=0;fontStyle=1;align=center;resizeLast=1;html=1;" vertex="1" parent="1">
          <mxGeometry x="-340" y="68.5" width="180" height="156" as="geometry" />
        </mxCell>
        <mxCell id="uT0Ym_xsnKb3VECdtyGS-116" value="" style="shape=tableRow;horizontal=0;startSize=0;swimlaneHead=0;swimlaneBody=0;fillColor=none;collapsible=0;dropTarget=0;points=[[0,0.5],[1,0.5]];portConstraint=eastwest;top=0;left=0;right=0;bottom=1;" vertex="1" parent="uT0Ym_xsnKb3VECdtyGS-115">
          <mxGeometry y="30" width="180" height="30" as="geometry" />
        </mxCell>
        <mxCell id="uT0Ym_xsnKb3VECdtyGS-117" value="PK" style="shape=partialRectangle;connectable=0;fillColor=none;top=0;left=0;bottom=0;right=0;fontStyle=1;overflow=hidden;whiteSpace=wrap;html=1;" vertex="1" parent="uT0Ym_xsnKb3VECdtyGS-116">
          <mxGeometry width="30" height="30" as="geometry">
            <mxRectangle width="30" height="30" as="alternateBounds" />
          </mxGeometry>
        </mxCell>
        <mxCell id="uT0Ym_xsnKb3VECdtyGS-118" value="&lt;span style=&quot;font-weight: 400; text-wrap: nowrap;&quot;&gt;Product ID(Int)&lt;/span&gt;" style="shape=partialRectangle;connectable=0;fillColor=none;top=0;left=0;bottom=0;right=0;align=left;spacingLeft=6;fontStyle=5;overflow=hidden;whiteSpace=wrap;html=1;" vertex="1" parent="uT0Ym_xsnKb3VECdtyGS-116">
          <mxGeometry x="30" width="150" height="30" as="geometry">
            <mxRectangle width="150" height="30" as="alternateBounds" />
          </mxGeometry>
        </mxCell>
        <mxCell id="uT0Ym_xsnKb3VECdtyGS-119" value="" style="shape=tableRow;horizontal=0;startSize=0;swimlaneHead=0;swimlaneBody=0;fillColor=none;collapsible=0;dropTarget=0;points=[[0,0.5],[1,0.5]];portConstraint=eastwest;top=0;left=0;right=0;bottom=0;" vertex="1" parent="uT0Ym_xsnKb3VECdtyGS-115">
          <mxGeometry y="60" width="180" height="38" as="geometry" />
        </mxCell>
        <mxCell id="uT0Ym_xsnKb3VECdtyGS-120" value="" style="shape=partialRectangle;connectable=0;fillColor=none;top=0;left=0;bottom=0;right=0;editable=1;overflow=hidden;whiteSpace=wrap;html=1;" vertex="1" parent="uT0Ym_xsnKb3VECdtyGS-119">
          <mxGeometry width="30" height="38" as="geometry">
            <mxRectangle width="30" height="38" as="alternateBounds" />
          </mxGeometry>
        </mxCell>
        <mxCell id="uT0Ym_xsnKb3VECdtyGS-121" value="&lt;span style=&quot;text-wrap: nowrap;&quot;&gt;Name(String)&lt;span style=&quot;white-space: pre;&quot;&gt;&#x9;&lt;/span&gt;&lt;/span&gt;" style="shape=partialRectangle;connectable=0;fillColor=none;top=0;left=0;bottom=0;right=0;align=left;spacingLeft=6;overflow=hidden;whiteSpace=wrap;html=1;" vertex="1" parent="uT0Ym_xsnKb3VECdtyGS-119">
          <mxGeometry x="30" width="150" height="38" as="geometry">
            <mxRectangle width="150" height="38" as="alternateBounds" />
          </mxGeometry>
        </mxCell>
        <mxCell id="uT0Ym_xsnKb3VECdtyGS-122" value="" style="shape=tableRow;horizontal=0;startSize=0;swimlaneHead=0;swimlaneBody=0;fillColor=none;collapsible=0;dropTarget=0;points=[[0,0.5],[1,0.5]];portConstraint=eastwest;top=0;left=0;right=0;bottom=0;" vertex="1" parent="uT0Ym_xsnKb3VECdtyGS-115">
          <mxGeometry y="98" width="180" height="30" as="geometry" />
        </mxCell>
        <mxCell id="uT0Ym_xsnKb3VECdtyGS-123" value="" style="shape=partialRectangle;connectable=0;fillColor=none;top=0;left=0;bottom=0;right=0;editable=1;overflow=hidden;whiteSpace=wrap;html=1;" vertex="1" parent="uT0Ym_xsnKb3VECdtyGS-122">
          <mxGeometry width="30" height="30" as="geometry">
            <mxRectangle width="30" height="30" as="alternateBounds" />
          </mxGeometry>
        </mxCell>
        <mxCell id="uT0Ym_xsnKb3VECdtyGS-124" value="&lt;span style=&quot;text-wrap: nowrap;&quot;&gt;Price (Decimal)&lt;/span&gt;" style="shape=partialRectangle;connectable=0;fillColor=none;top=0;left=0;bottom=0;right=0;align=left;spacingLeft=6;overflow=hidden;whiteSpace=wrap;html=1;" vertex="1" parent="uT0Ym_xsnKb3VECdtyGS-122">
          <mxGeometry x="30" width="150" height="30" as="geometry">
            <mxRectangle width="150" height="30" as="alternateBounds" />
          </mxGeometry>
        </mxCell>
        <mxCell id="uT0Ym_xsnKb3VECdtyGS-125" value="" style="shape=tableRow;horizontal=0;startSize=0;swimlaneHead=0;swimlaneBody=0;fillColor=none;collapsible=0;dropTarget=0;points=[[0,0.5],[1,0.5]];portConstraint=eastwest;top=0;left=0;right=0;bottom=0;" vertex="1" parent="uT0Ym_xsnKb3VECdtyGS-115">
          <mxGeometry y="128" width="180" height="28" as="geometry" />
        </mxCell>
        <mxCell id="uT0Ym_xsnKb3VECdtyGS-126" value="" style="shape=partialRectangle;connectable=0;fillColor=none;top=0;left=0;bottom=0;right=0;editable=1;overflow=hidden;whiteSpace=wrap;html=1;" vertex="1" parent="uT0Ym_xsnKb3VECdtyGS-125">
          <mxGeometry width="30" height="28" as="geometry">
            <mxRectangle width="30" height="28" as="alternateBounds" />
          </mxGeometry>
        </mxCell>
        <mxCell id="uT0Ym_xsnKb3VECdtyGS-127" value="&lt;span style=&quot;text-wrap: nowrap;&quot;&gt;Description(String)&lt;/span&gt;" style="shape=partialRectangle;connectable=0;fillColor=none;top=0;left=0;bottom=0;right=0;align=left;spacingLeft=6;overflow=hidden;whiteSpace=wrap;html=1;" vertex="1" parent="uT0Ym_xsnKb3VECdtyGS-125">
          <mxGeometry x="30" width="150" height="28" as="geometry">
            <mxRectangle width="150" height="28" as="alternateBounds" />
          </mxGeometry>
        </mxCell>
        <mxCell id="uT0Ym_xsnKb3VECdtyGS-128" value="" style="shape=partialRectangle;connectable=0;fillColor=none;top=0;left=0;bottom=0;right=0;editable=1;overflow=hidden;whiteSpace=wrap;html=1;" vertex="1" parent="1">
          <mxGeometry x="-540" y="273" width="30" height="30" as="geometry">
            <mxRectangle width="30" height="30" as="alternateBounds" />
          </mxGeometry>
        </mxCell>
        <mxCell id="uT0Ym_xsnKb3VECdtyGS-166" value="Actor" style="shape=umlActor;verticalLabelPosition=bottom;verticalAlign=top;html=1;" vertex="1" parent="1">
          <mxGeometry x="130" y="945" width="30" height="60" as="geometry" />
        </mxCell>
        <mxCell id="uT0Ym_xsnKb3VECdtyGS-167" value="" style="verticalLabelPosition=bottom;verticalAlign=top;html=1;shape=mxgraph.basic.smiley" vertex="1" parent="1">
          <mxGeometry x="100" y="810" width="100" height="100" as="geometry" />
        </mxCell>
        <mxCell id="uT0Ym_xsnKb3VECdtyGS-168" value="lua nay chay&amp;nbsp;" style="whiteSpace=wrap;html=1;shape=mxgraph.basic.loud_callout" vertex="1" parent="1">
          <mxGeometry x="150" y="895" width="110" height="61" as="geometry" />
        </mxCell>
        <mxCell id="uT0Ym_xsnKb3VECdtyGS-169" value="" style="endArrow=none;html=1;rounded=0;exitX=1;exitY=0.25;exitDx=0;exitDy=0;entryX=0;entryY=0.5;entryDx=0;entryDy=0;" edge="1" parent="1" source="uT0Ym_xsnKb3VECdtyGS-5" target="uT0Ym_xsnKb3VECdtyGS-119">
          <mxGeometry width="50" height="50" relative="1" as="geometry">
            <mxPoint x="-470" y="250" as="sourcePoint" />
            <mxPoint x="-420" y="200" as="targetPoint" />
          </mxGeometry>
        </mxCell>
        <mxCell id="uT0Ym_xsnKb3VECdtyGS-195" value="" style="endArrow=none;html=1;rounded=0;exitX=0.994;exitY=0.362;exitDx=0;exitDy=0;exitPerimeter=0;entryX=0;entryY=0.5;entryDx=0;entryDy=0;" edge="1" parent="1" source="uT0Ym_xsnKb3VECdtyGS-9" target="uT0Ym_xsnKb3VECdtyGS-58">
          <mxGeometry relative="1" as="geometry">
            <mxPoint x="-460" y="430" as="sourcePoint" />
            <mxPoint x="-300" y="430" as="targetPoint" />
          </mxGeometry>
        </mxCell>
        <mxCell id="uT0Ym_xsnKb3VECdtyGS-196" value="Table" style="shape=table;startSize=30;container=1;collapsible=1;childLayout=tableLayout;fixedRows=1;rowLines=0;fontStyle=1;align=center;resizeLast=1;html=1;" vertex="1" parent="1">
          <mxGeometry x="-220" y="485" width="200" height="165" as="geometry" />
        </mxCell>
        <mxCell id="uT0Ym_xsnKb3VECdtyGS-197" value="" style="shape=tableRow;horizontal=0;startSize=0;swimlaneHead=0;swimlaneBody=0;fillColor=none;collapsible=0;dropTarget=0;points=[[0,0.5],[1,0.5]];portConstraint=eastwest;top=0;left=0;right=0;bottom=1;" vertex="1" parent="uT0Ym_xsnKb3VECdtyGS-196">
          <mxGeometry y="30" width="200" height="30" as="geometry" />
        </mxCell>
        <mxCell id="uT0Ym_xsnKb3VECdtyGS-198" value="PK" style="shape=partialRectangle;connectable=0;fillColor=none;top=0;left=0;bottom=0;right=0;fontStyle=1;overflow=hidden;whiteSpace=wrap;html=1;" vertex="1" parent="uT0Ym_xsnKb3VECdtyGS-197">
          <mxGeometry width="30" height="30" as="geometry">
            <mxRectangle width="30" height="30" as="alternateBounds" />
          </mxGeometry>
        </mxCell>
        <mxCell id="uT0Ym_xsnKb3VECdtyGS-199" value="&lt;span style=&quot;font-weight: 400; text-wrap: nowrap;&quot;&gt;Delivery ID(Int)&lt;/span&gt;" style="shape=partialRectangle;connectable=0;fillColor=none;top=0;left=0;bottom=0;right=0;align=left;spacingLeft=6;fontStyle=5;overflow=hidden;whiteSpace=wrap;html=1;" vertex="1" parent="uT0Ym_xsnKb3VECdtyGS-197">
          <mxGeometry x="30" width="170" height="30" as="geometry">
            <mxRectangle width="170" height="30" as="alternateBounds" />
          </mxGeometry>
        </mxCell>
        <mxCell id="uT0Ym_xsnKb3VECdtyGS-200" value="" style="shape=tableRow;horizontal=0;startSize=0;swimlaneHead=0;swimlaneBody=0;fillColor=none;collapsible=0;dropTarget=0;points=[[0,0.5],[1,0.5]];portConstraint=eastwest;top=0;left=0;right=0;bottom=0;" vertex="1" parent="uT0Ym_xsnKb3VECdtyGS-196">
          <mxGeometry y="60" width="200" height="38" as="geometry" />
        </mxCell>
        <mxCell id="uT0Ym_xsnKb3VECdtyGS-201" value="" style="shape=partialRectangle;connectable=0;fillColor=none;top=0;left=0;bottom=0;right=0;editable=1;overflow=hidden;whiteSpace=wrap;html=1;" vertex="1" parent="uT0Ym_xsnKb3VECdtyGS-200">
          <mxGeometry width="30" height="38" as="geometry">
            <mxRectangle width="30" height="38" as="alternateBounds" />
          </mxGeometry>
        </mxCell>
        <mxCell id="uT0Ym_xsnKb3VECdtyGS-202" value="&lt;span style=&quot;text-wrap: nowrap;&quot;&gt;Address(String)&lt;/span&gt;" style="shape=partialRectangle;connectable=0;fillColor=none;top=0;left=0;bottom=0;right=0;align=left;spacingLeft=6;overflow=hidden;whiteSpace=wrap;html=1;" vertex="1" parent="uT0Ym_xsnKb3VECdtyGS-200">
          <mxGeometry x="30" width="170" height="38" as="geometry">
            <mxRectangle width="170" height="38" as="alternateBounds" />
          </mxGeometry>
        </mxCell>
        <mxCell id="uT0Ym_xsnKb3VECdtyGS-203" value="" style="shape=tableRow;horizontal=0;startSize=0;swimlaneHead=0;swimlaneBody=0;fillColor=none;collapsible=0;dropTarget=0;points=[[0,0.5],[1,0.5]];portConstraint=eastwest;top=0;left=0;right=0;bottom=0;" vertex="1" parent="uT0Ym_xsnKb3VECdtyGS-196">
          <mxGeometry y="98" width="200" height="30" as="geometry" />
        </mxCell>
        <mxCell id="uT0Ym_xsnKb3VECdtyGS-204" value="" style="shape=partialRectangle;connectable=0;fillColor=none;top=0;left=0;bottom=0;right=0;editable=1;overflow=hidden;whiteSpace=wrap;html=1;" vertex="1" parent="uT0Ym_xsnKb3VECdtyGS-203">
          <mxGeometry width="30" height="30" as="geometry">
            <mxRectangle width="30" height="30" as="alternateBounds" />
          </mxGeometry>
        </mxCell>
        <mxCell id="uT0Ym_xsnKb3VECdtyGS-205" value="&lt;span style=&quot;text-wrap: nowrap;&quot;&gt;Email (String)&lt;/span&gt;" style="shape=partialRectangle;connectable=0;fillColor=none;top=0;left=0;bottom=0;right=0;align=left;spacingLeft=6;overflow=hidden;whiteSpace=wrap;html=1;" vertex="1" parent="uT0Ym_xsnKb3VECdtyGS-203">
          <mxGeometry x="30" width="170" height="30" as="geometry">
            <mxRectangle width="170" height="30" as="alternateBounds" />
          </mxGeometry>
        </mxCell>
        <mxCell id="uT0Ym_xsnKb3VECdtyGS-206" value="" style="shape=tableRow;horizontal=0;startSize=0;swimlaneHead=0;swimlaneBody=0;fillColor=none;collapsible=0;dropTarget=0;points=[[0,0.5],[1,0.5]];portConstraint=eastwest;top=0;left=0;right=0;bottom=0;" vertex="1" parent="uT0Ym_xsnKb3VECdtyGS-196">
          <mxGeometry y="128" width="200" height="37" as="geometry" />
        </mxCell>
        <mxCell id="uT0Ym_xsnKb3VECdtyGS-207" value="" style="shape=partialRectangle;connectable=0;fillColor=none;top=0;left=0;bottom=0;right=0;editable=1;overflow=hidden;whiteSpace=wrap;html=1;" vertex="1" parent="uT0Ym_xsnKb3VECdtyGS-206">
          <mxGeometry width="30" height="37" as="geometry">
            <mxRectangle width="30" height="37" as="alternateBounds" />
          </mxGeometry>
        </mxCell>
        <mxCell id="uT0Ym_xsnKb3VECdtyGS-208" value="***Estimated Delivery Date&lt;br&gt;(Date)" style="shape=partialRectangle;connectable=0;fillColor=none;top=0;left=0;bottom=0;right=0;align=left;spacingLeft=6;overflow=hidden;whiteSpace=wrap;html=1;" vertex="1" parent="uT0Ym_xsnKb3VECdtyGS-206">
          <mxGeometry x="30" width="170" height="37" as="geometry">
            <mxRectangle width="170" height="37" as="alternateBounds" />
          </mxGeometry>
        </mxCell>
        <mxCell id="uT0Ym_xsnKb3VECdtyGS-209" value="" style="shape=partialRectangle;connectable=0;fillColor=none;top=0;left=0;bottom=0;right=0;editable=1;overflow=hidden;whiteSpace=wrap;html=1;" vertex="1" parent="1">
          <mxGeometry x="-220" y="610" width="30" height="30" as="geometry">
            <mxRectangle width="30" height="30" as="alternateBounds" />
          </mxGeometry>
        </mxCell>
        <mxCell id="uT0Ym_xsnKb3VECdtyGS-223" value="" style="endArrow=none;html=1;rounded=0;exitX=1;exitY=0.25;exitDx=0;exitDy=0;entryX=0;entryY=0.5;entryDx=0;entryDy=0;" edge="1" parent="1" source="uT0Ym_xsnKb3VECdtyGS-11" target="uT0Ym_xsnKb3VECdtyGS-200">
          <mxGeometry relative="1" as="geometry">
            <mxPoint x="-470" y="590" as="sourcePoint" />
            <mxPoint x="-310" y="590" as="targetPoint" />
          </mxGeometry>
        </mxCell>
        <mxCell id="uT0Ym_xsnKb3VECdtyGS-225" value="Table" style="shape=table;startSize=30;container=1;collapsible=1;childLayout=tableLayout;fixedRows=1;rowLines=0;fontStyle=1;align=center;resizeLast=1;html=1;whiteSpace=wrap;" vertex="1" parent="1">
          <mxGeometry x="-450" y="974" width="180" height="210" as="geometry" />
        </mxCell>
        <mxCell id="uT0Ym_xsnKb3VECdtyGS-226" value="" style="shape=tableRow;horizontal=0;startSize=0;swimlaneHead=0;swimlaneBody=0;fillColor=none;collapsible=0;dropTarget=0;points=[[0,0.5],[1,0.5]];portConstraint=eastwest;top=0;left=0;right=0;bottom=0;html=1;" vertex="1" parent="uT0Ym_xsnKb3VECdtyGS-225">
          <mxGeometry y="30" width="180" height="30" as="geometry" />
        </mxCell>
        <mxCell id="uT0Ym_xsnKb3VECdtyGS-227" value="PK,FK1" style="shape=partialRectangle;connectable=0;fillColor=none;top=0;left=0;bottom=0;right=0;fontStyle=1;overflow=hidden;html=1;whiteSpace=wrap;" vertex="1" parent="uT0Ym_xsnKb3VECdtyGS-226">
          <mxGeometry width="60" height="30" as="geometry">
            <mxRectangle width="60" height="30" as="alternateBounds" />
          </mxGeometry>
        </mxCell>
        <mxCell id="uT0Ym_xsnKb3VECdtyGS-228" value="CommentID(Int)" style="shape=partialRectangle;connectable=0;fillColor=none;top=0;left=0;bottom=0;right=0;align=left;spacingLeft=6;fontStyle=5;overflow=hidden;html=1;whiteSpace=wrap;" vertex="1" parent="uT0Ym_xsnKb3VECdtyGS-226">
          <mxGeometry x="60" width="120" height="30" as="geometry">
            <mxRectangle width="120" height="30" as="alternateBounds" />
          </mxGeometry>
        </mxCell>
        <mxCell id="uT0Ym_xsnKb3VECdtyGS-229" value="" style="shape=tableRow;horizontal=0;startSize=0;swimlaneHead=0;swimlaneBody=0;fillColor=none;collapsible=0;dropTarget=0;points=[[0,0.5],[1,0.5]];portConstraint=eastwest;top=0;left=0;right=0;bottom=1;html=1;" vertex="1" parent="uT0Ym_xsnKb3VECdtyGS-225">
          <mxGeometry y="60" width="180" height="30" as="geometry" />
        </mxCell>
        <mxCell id="uT0Ym_xsnKb3VECdtyGS-230" value="FK2" style="shape=partialRectangle;connectable=0;fillColor=none;top=0;left=0;bottom=0;right=0;fontStyle=1;overflow=hidden;html=1;whiteSpace=wrap;" vertex="1" parent="uT0Ym_xsnKb3VECdtyGS-229">
          <mxGeometry width="60" height="30" as="geometry">
            <mxRectangle width="60" height="30" as="alternateBounds" />
          </mxGeometry>
        </mxCell>
        <mxCell id="uT0Ym_xsnKb3VECdtyGS-231" value="UserID(Int)" style="shape=partialRectangle;connectable=0;fillColor=none;top=0;left=0;bottom=0;right=0;align=left;spacingLeft=6;fontStyle=5;overflow=hidden;html=1;whiteSpace=wrap;" vertex="1" parent="uT0Ym_xsnKb3VECdtyGS-229">
          <mxGeometry x="60" width="120" height="30" as="geometry">
            <mxRectangle width="120" height="30" as="alternateBounds" />
          </mxGeometry>
        </mxCell>
        <mxCell id="uT0Ym_xsnKb3VECdtyGS-238" value="" style="shape=tableRow;horizontal=0;startSize=0;swimlaneHead=0;swimlaneBody=0;fillColor=none;collapsible=0;dropTarget=0;points=[[0,0.5],[1,0.5]];portConstraint=eastwest;top=0;left=0;right=0;bottom=0;" vertex="1" parent="uT0Ym_xsnKb3VECdtyGS-225">
          <mxGeometry y="90" width="180" height="30" as="geometry" />
        </mxCell>
        <mxCell id="uT0Ym_xsnKb3VECdtyGS-239" value="FK" style="shape=partialRectangle;connectable=0;fillColor=none;top=0;left=0;bottom=0;right=0;fontStyle=0;overflow=hidden;whiteSpace=wrap;html=1;" vertex="1" parent="uT0Ym_xsnKb3VECdtyGS-238">
          <mxGeometry width="60" height="30" as="geometry">
            <mxRectangle width="60" height="30" as="alternateBounds" />
          </mxGeometry>
        </mxCell>
        <mxCell id="uT0Ym_xsnKb3VECdtyGS-240" value="ProductID(Int)" style="shape=partialRectangle;connectable=0;fillColor=none;top=0;left=0;bottom=0;right=0;align=left;spacingLeft=6;fontStyle=0;overflow=hidden;whiteSpace=wrap;html=1;" vertex="1" parent="uT0Ym_xsnKb3VECdtyGS-238">
          <mxGeometry x="60" width="120" height="30" as="geometry">
            <mxRectangle width="120" height="30" as="alternateBounds" />
          </mxGeometry>
        </mxCell>
        <mxCell id="uT0Ym_xsnKb3VECdtyGS-232" value="" style="shape=tableRow;horizontal=0;startSize=0;swimlaneHead=0;swimlaneBody=0;fillColor=none;collapsible=0;dropTarget=0;points=[[0,0.5],[1,0.5]];portConstraint=eastwest;top=0;left=0;right=0;bottom=0;html=1;" vertex="1" parent="uT0Ym_xsnKb3VECdtyGS-225">
          <mxGeometry y="120" width="180" height="30" as="geometry" />
        </mxCell>
        <mxCell id="uT0Ym_xsnKb3VECdtyGS-233" value="" style="shape=partialRectangle;connectable=0;fillColor=none;top=0;left=0;bottom=0;right=0;editable=1;overflow=hidden;html=1;whiteSpace=wrap;" vertex="1" parent="uT0Ym_xsnKb3VECdtyGS-232">
          <mxGeometry width="60" height="30" as="geometry">
            <mxRectangle width="60" height="30" as="alternateBounds" />
          </mxGeometry>
        </mxCell>
        <mxCell id="uT0Ym_xsnKb3VECdtyGS-234" value="Text(String)" style="shape=partialRectangle;connectable=0;fillColor=none;top=0;left=0;bottom=0;right=0;align=left;spacingLeft=6;overflow=hidden;html=1;whiteSpace=wrap;" vertex="1" parent="uT0Ym_xsnKb3VECdtyGS-232">
          <mxGeometry x="60" width="120" height="30" as="geometry">
            <mxRectangle width="120" height="30" as="alternateBounds" />
          </mxGeometry>
        </mxCell>
        <mxCell id="uT0Ym_xsnKb3VECdtyGS-241" value="" style="shape=tableRow;horizontal=0;startSize=0;swimlaneHead=0;swimlaneBody=0;fillColor=none;collapsible=0;dropTarget=0;points=[[0,0.5],[1,0.5]];portConstraint=eastwest;top=0;left=0;right=0;bottom=0;" vertex="1" parent="uT0Ym_xsnKb3VECdtyGS-225">
          <mxGeometry y="150" width="180" height="30" as="geometry" />
        </mxCell>
        <mxCell id="uT0Ym_xsnKb3VECdtyGS-242" value="" style="shape=partialRectangle;connectable=0;fillColor=none;top=0;left=0;bottom=0;right=0;editable=1;overflow=hidden;" vertex="1" parent="uT0Ym_xsnKb3VECdtyGS-241">
          <mxGeometry width="60" height="30" as="geometry">
            <mxRectangle width="60" height="30" as="alternateBounds" />
          </mxGeometry>
        </mxCell>
        <mxCell id="uT0Ym_xsnKb3VECdtyGS-243" value="**Rate(Int)" style="shape=partialRectangle;connectable=0;fillColor=none;top=0;left=0;bottom=0;right=0;align=left;spacingLeft=6;overflow=hidden;" vertex="1" parent="uT0Ym_xsnKb3VECdtyGS-241">
          <mxGeometry x="60" width="120" height="30" as="geometry">
            <mxRectangle width="120" height="30" as="alternateBounds" />
          </mxGeometry>
        </mxCell>
        <mxCell id="uT0Ym_xsnKb3VECdtyGS-235" value="" style="shape=tableRow;horizontal=0;startSize=0;swimlaneHead=0;swimlaneBody=0;fillColor=none;collapsible=0;dropTarget=0;points=[[0,0.5],[1,0.5]];portConstraint=eastwest;top=0;left=0;right=0;bottom=0;html=1;" vertex="1" parent="uT0Ym_xsnKb3VECdtyGS-225">
          <mxGeometry y="180" width="180" height="30" as="geometry" />
        </mxCell>
        <mxCell id="uT0Ym_xsnKb3VECdtyGS-236" value="" style="shape=partialRectangle;connectable=0;fillColor=none;top=0;left=0;bottom=0;right=0;editable=1;overflow=hidden;html=1;whiteSpace=wrap;" vertex="1" parent="uT0Ym_xsnKb3VECdtyGS-235">
          <mxGeometry width="60" height="30" as="geometry">
            <mxRectangle width="60" height="30" as="alternateBounds" />
          </mxGeometry>
        </mxCell>
        <mxCell id="uT0Ym_xsnKb3VECdtyGS-237" value="Date(DateTime)" style="shape=partialRectangle;connectable=0;fillColor=none;top=0;left=0;bottom=0;right=0;align=left;spacingLeft=6;overflow=hidden;html=1;whiteSpace=wrap;" vertex="1" parent="uT0Ym_xsnKb3VECdtyGS-235">
          <mxGeometry x="60" width="120" height="30" as="geometry">
            <mxRectangle width="120" height="30" as="alternateBounds" />
          </mxGeometry>
        </mxCell>
        <mxCell id="uT0Ym_xsnKb3VECdtyGS-245" value="" style="endArrow=none;html=1;rounded=0;exitX=1.005;exitY=0.337;exitDx=0;exitDy=0;exitPerimeter=0;entryX=-0.013;entryY=0.202;entryDx=0;entryDy=0;entryPerimeter=0;" edge="1" parent="1" source="uT0Ym_xsnKb3VECdtyGS-18" target="uT0Ym_xsnKb3VECdtyGS-71">
          <mxGeometry relative="1" as="geometry">
            <mxPoint x="-450" y="720" as="sourcePoint" />
            <mxPoint x="-290" y="720" as="targetPoint" />
          </mxGeometry>
        </mxCell>
        <mxCell id="uT0Ym_xsnKb3VECdtyGS-247" value="" style="endArrow=none;html=1;rounded=0;entryX=0.04;entryY=-0.018;entryDx=0;entryDy=0;entryPerimeter=0;exitX=1;exitY=0.25;exitDx=0;exitDy=0;" edge="1" parent="1" source="uT0Ym_xsnKb3VECdtyGS-15" target="uT0Ym_xsnKb3VECdtyGS-103">
          <mxGeometry relative="1" as="geometry">
            <mxPoint x="-480" y="860" as="sourcePoint" />
            <mxPoint x="-320" y="860" as="targetPoint" />
          </mxGeometry>
        </mxCell>
        <mxCell id="uT0Ym_xsnKb3VECdtyGS-248" value="" style="endArrow=none;html=1;rounded=0;exitX=1;exitY=0;exitDx=0;exitDy=0;entryX=0;entryY=0.5;entryDx=0;entryDy=0;" edge="1" parent="1" source="uT0Ym_xsnKb3VECdtyGS-17" target="uT0Ym_xsnKb3VECdtyGS-226">
          <mxGeometry relative="1" as="geometry">
            <mxPoint x="-530" y="970" as="sourcePoint" />
            <mxPoint x="-370" y="970" as="targetPoint" />
          </mxGeometry>
        </mxCell>
      </root>
    </mxGraphModel>
  </diagram>
</mxfile>
